<mxfile host="app.diagrams.net" modified="2021-03-17T18:12:13.195Z" agent="5.0 (Macintosh; Intel Mac OS X 11_2_2) AppleWebKit/537.36 (KHTML, like Gecko) Chrome/89.0.4389.82 Safari/537.36" etag="33YAlC_1Z4QvLonRM3Q7" version="14.2.7" type="github" pages="2">
  <diagram name="Home" id="efa7a0a1-bf9b-a30e-e6df-94a7791c09e9">
    <mxGraphModel dx="1225" dy="2333" grid="1" gridSize="10" guides="1" tooltips="1" connect="1" arrows="1" fold="1" page="1" pageScale="1" pageWidth="826" pageHeight="1169" background="#ffffff" math="0" shadow="0">
      <root>
        <mxCell id="0" />
        <mxCell id="1" parent="0" />
        <mxCell id="HFNR5i-n0qlMSI1-7nrS-8" value="&lt;div&gt;OneWorkout(classId) ? &quot;Completed&quot; :&amp;nbsp; nav=&#39;Program&#39;,&amp;nbsp;&lt;/div&gt;&lt;div&gt;params: {&amp;nbsp;&lt;/div&gt;&lt;div&gt;programId: programId&lt;/div&gt;&lt;div&gt;}&lt;/div&gt;&lt;div&gt;component: MeditationModal&lt;/div&gt;" style="rounded=0;whiteSpace=wrap;html=1;glass=1;labelBackgroundColor=#33FFFF;strokeColor=#000000;gradientColor=#7EA6E0;fillColor=#E0E0E0;" vertex="1" parent="1">
          <mxGeometry x="1527" y="-1050" width="323" height="120" as="geometry" />
        </mxCell>
        <mxCell id="q_NAWSHO8Kiw4g9SQnGk-114" value="" style="rounded=1;whiteSpace=wrap;html=1;rotation=90;fillColor=#d5e8d4;strokeColor=#82b366;" vertex="1" parent="1">
          <mxGeometry x="678.13" y="-461.87" width="1158.75" height="325" as="geometry" />
        </mxCell>
        <mxCell id="q_NAWSHO8Kiw4g9SQnGk-117" value="" style="rounded=0;whiteSpace=wrap;html=1;" vertex="1" parent="1">
          <mxGeometry x="1125" y="-430" width="270" height="30" as="geometry" />
        </mxCell>
        <mxCell id="q_NAWSHO8Kiw4g9SQnGk-118" value="" style="rounded=1;whiteSpace=wrap;html=1;" vertex="1" parent="1">
          <mxGeometry x="1115" y="-285" width="290" height="90" as="geometry" />
        </mxCell>
        <mxCell id="q_NAWSHO8Kiw4g9SQnGk-119" value="" style="rounded=1;whiteSpace=wrap;html=1;" vertex="1" parent="1">
          <mxGeometry x="1302" y="-570" width="80" height="30" as="geometry" />
        </mxCell>
        <mxCell id="q_NAWSHO8Kiw4g9SQnGk-120" value="" style="rounded=1;whiteSpace=wrap;html=1;" vertex="1" parent="1">
          <mxGeometry x="1112.5" y="-165" width="290" height="90" as="geometry" />
        </mxCell>
        <mxCell id="q_NAWSHO8Kiw4g9SQnGk-121" value="" style="whiteSpace=wrap;html=1;aspect=fixed;gradientColor=#7ea6e0;fillColor=#dae8fc;strokeColor=#6c8ebf;" vertex="1" parent="1">
          <mxGeometry x="1300" y="-280" width="80" height="80" as="geometry" />
        </mxCell>
        <mxCell id="q_NAWSHO8Kiw4g9SQnGk-122" value="" style="whiteSpace=wrap;html=1;aspect=fixed;gradientColor=#7ea6e0;fillColor=#dae8fc;strokeColor=#6c8ebf;" vertex="1" parent="1">
          <mxGeometry x="1300" y="-160" width="80" height="80" as="geometry" />
        </mxCell>
        <mxCell id="q_NAWSHO8Kiw4g9SQnGk-123" value="" style="shape=flexArrow;endArrow=classic;html=1;gradientColor=#7ea6e0;fillColor=#dae8fc;strokeColor=#6c8ebf;gradientDirection=west;" edge="1" parent="1">
          <mxGeometry width="50" height="50" relative="1" as="geometry">
            <mxPoint x="1380" y="-245.5" as="sourcePoint" />
            <mxPoint x="1470" y="-245" as="targetPoint" />
          </mxGeometry>
        </mxCell>
        <mxCell id="q_NAWSHO8Kiw4g9SQnGk-124" value="" style="shape=flexArrow;endArrow=classic;html=1;gradientColor=#7ea6e0;fillColor=#dae8fc;strokeColor=#6c8ebf;gradientDirection=west;" edge="1" parent="1">
          <mxGeometry width="50" height="50" relative="1" as="geometry">
            <mxPoint x="1380" y="-120.5" as="sourcePoint" />
            <mxPoint x="1730" y="-120.5" as="targetPoint" />
          </mxGeometry>
        </mxCell>
        <mxCell id="q_NAWSHO8Kiw4g9SQnGk-127" value="&lt;font style=&quot;font-size: 48px&quot;&gt;HOME&lt;/font&gt;" style="text;html=1;strokeColor=none;fillColor=none;align=center;verticalAlign=middle;whiteSpace=wrap;rounded=0;" vertex="1" parent="1">
          <mxGeometry x="1175" y="-1020" width="160" height="70" as="geometry" />
        </mxCell>
        <mxCell id="q_NAWSHO8Kiw4g9SQnGk-131" value="&lt;b&gt;&lt;font style=&quot;font-size: 18px ; background-color: rgb(169 , 196 , 235)&quot;&gt;ACTIONS&lt;/font&gt;&lt;/b&gt;" style="text;html=1;strokeColor=none;fillColor=none;align=center;verticalAlign=middle;whiteSpace=wrap;rounded=0;" vertex="1" parent="1">
          <mxGeometry x="1280" y="-960" width="70" height="40" as="geometry" />
        </mxCell>
        <mxCell id="q_NAWSHO8Kiw4g9SQnGk-132" value="&lt;b&gt;&lt;font style=&quot;font-size: 18px&quot;&gt;SCREEN&lt;/font&gt;&lt;/b&gt;" style="text;html=1;strokeColor=none;fillColor=none;align=center;verticalAlign=middle;whiteSpace=wrap;rounded=0;labelBackgroundColor=#33FFFF;" vertex="1" parent="1">
          <mxGeometry x="1157" y="-960" width="60" height="40" as="geometry" />
        </mxCell>
        <mxCell id="q_NAWSHO8Kiw4g9SQnGk-142" value="" style="shape=flexArrow;endArrow=classic;html=1;gradientColor=#7ea6e0;fillColor=#dae8fc;strokeColor=#6c8ebf;gradientDirection=west;" edge="1" parent="1">
          <mxGeometry width="50" height="50" relative="1" as="geometry">
            <mxPoint x="1255" y="-414.25" as="sourcePoint" />
            <mxPoint x="1470" y="-414" as="targetPoint" />
          </mxGeometry>
        </mxCell>
        <mxCell id="q_NAWSHO8Kiw4g9SQnGk-144" value="" style="rounded=1;whiteSpace=wrap;html=1;" vertex="1" parent="1">
          <mxGeometry x="1105" y="81.64" width="295" height="90" as="geometry" />
        </mxCell>
        <mxCell id="q_NAWSHO8Kiw4g9SQnGk-146" value="" style="shape=flexArrow;endArrow=classic;html=1;gradientColor=#7ea6e0;fillColor=#dae8fc;strokeColor=#6c8ebf;gradientDirection=west;" edge="1" parent="1">
          <mxGeometry width="50" height="50" relative="1" as="geometry">
            <mxPoint x="1370" y="126.13999999999999" as="sourcePoint" />
            <mxPoint x="1720" y="126.13999999999999" as="targetPoint" />
          </mxGeometry>
        </mxCell>
        <mxCell id="q_NAWSHO8Kiw4g9SQnGk-147" value="&lt;blockquote style=&quot;margin: 0 0 0 40px ; border: none ; padding: 0px&quot;&gt;&lt;p style=&quot;line-height: 50%&quot;&gt;&lt;b&gt;&lt;font color=&quot;#0000ff&quot;&gt;nav&lt;/font&gt;&lt;/b&gt;=&#39;MeditationModal&#39;,&amp;nbsp;&lt;/p&gt;&lt;div&gt;&lt;b&gt;&lt;font color=&quot;#007fff&quot;&gt;params&lt;/font&gt;&lt;/b&gt;&lt;span&gt;: {&amp;nbsp;&lt;/span&gt;&lt;/div&gt;&lt;div&gt;&lt;span&gt;meditation,&lt;/span&gt;&lt;/div&gt;meditationId,&lt;br&gt;}&lt;br&gt;&lt;font color=&quot;#ff3333&quot;&gt;&lt;b&gt;component&lt;/b&gt;&lt;/font&gt;: MeditationModal&lt;/blockquote&gt;&lt;p&gt;&lt;/p&gt;" style="text;html=1;strokeColor=#36393d;fillColor=#cce5ff;align=left;verticalAlign=middle;whiteSpace=wrap;rounded=1;gradientColor=#7EA6E0;perimeterSpacing=1;labelPadding=7;arcSize=0;" vertex="1" parent="1">
          <mxGeometry x="1470" y="-70" width="200" height="150" as="geometry" />
        </mxCell>
        <mxCell id="q_NAWSHO8Kiw4g9SQnGk-148" value="" style="rounded=1;whiteSpace=wrap;html=1;" vertex="1" parent="1">
          <mxGeometry x="1110" y="-45" width="290" height="90" as="geometry" />
        </mxCell>
        <mxCell id="q_NAWSHO8Kiw4g9SQnGk-150" value="" style="shape=flexArrow;endArrow=classic;html=1;gradientColor=#7ea6e0;fillColor=#dae8fc;strokeColor=#6c8ebf;gradientDirection=west;" edge="1" parent="1">
          <mxGeometry width="50" height="50" relative="1" as="geometry">
            <mxPoint x="1370" y="-0.5" as="sourcePoint" />
            <mxPoint x="1460" as="targetPoint" />
          </mxGeometry>
        </mxCell>
        <mxCell id="q_NAWSHO8Kiw4g9SQnGk-152" value="&lt;font style=&quot;font-size: 14px&quot;&gt;&lt;b&gt;Challenges&lt;/b&gt;&lt;/font&gt;" style="text;html=1;strokeColor=none;fillColor=none;align=center;verticalAlign=middle;whiteSpace=wrap;rounded=0;" vertex="1" parent="1">
          <mxGeometry x="1150" y="-423.75" width="40" height="20" as="geometry" />
        </mxCell>
        <mxCell id="q_NAWSHO8Kiw4g9SQnGk-153" value="&lt;span style=&quot;font-size: 14px&quot;&gt;&lt;b&gt;Popular SG Classes&lt;/b&gt;&lt;/span&gt;" style="text;html=1;strokeColor=none;fillColor=none;align=left;verticalAlign=middle;whiteSpace=wrap;rounded=0;" vertex="1" parent="1">
          <mxGeometry x="1125" y="-290" width="155" height="40" as="geometry" />
        </mxCell>
        <mxCell id="q_NAWSHO8Kiw4g9SQnGk-154" value="&lt;font style=&quot;font-size: 14px&quot;&gt;&lt;b&gt;Hydro&lt;/b&gt;&lt;/font&gt;" style="text;html=1;strokeColor=none;fillColor=none;align=center;verticalAlign=middle;whiteSpace=wrap;rounded=0;" vertex="1" parent="1">
          <mxGeometry x="1125" y="-160" width="40" height="20" as="geometry" />
        </mxCell>
        <mxCell id="q_NAWSHO8Kiw4g9SQnGk-155" value="&lt;font style=&quot;font-size: 14px&quot;&gt;&lt;b&gt;Meditations&lt;/b&gt;&lt;/font&gt;" style="text;html=1;strokeColor=none;fillColor=none;align=center;verticalAlign=middle;whiteSpace=wrap;rounded=0;" vertex="1" parent="1">
          <mxGeometry x="1140" y="-40" width="40" height="20" as="geometry" />
        </mxCell>
        <mxCell id="q_NAWSHO8Kiw4g9SQnGk-156" value="" style="shape=flexArrow;endArrow=classic;html=1;strokeWidth=2;gradientColor=#ffffff;gradientDirection=west;fillColor=#1A1A1A;" edge="1" parent="1">
          <mxGeometry width="50" height="50" relative="1" as="geometry">
            <mxPoint x="1140" y="-345.5" as="sourcePoint" />
            <mxPoint x="840" y="-345.5" as="targetPoint" />
          </mxGeometry>
        </mxCell>
        <mxCell id="q_NAWSHO8Kiw4g9SQnGk-158" value="" style="shape=flexArrow;endArrow=classic;html=1;strokeWidth=2;gradientColor=#ffffff;gradientDirection=west;fillColor=#333333;" edge="1" parent="1">
          <mxGeometry width="50" height="50" relative="1" as="geometry">
            <mxPoint x="1115" y="-240" as="sourcePoint" />
            <mxPoint x="1025" y="-240.5" as="targetPoint" />
          </mxGeometry>
        </mxCell>
        <mxCell id="q_NAWSHO8Kiw4g9SQnGk-160" value="" style="shape=flexArrow;endArrow=classic;html=1;strokeWidth=2;gradientColor=#ffffff;gradientDirection=west;fillColor=#333333;" edge="1" parent="1">
          <mxGeometry width="50" height="50" relative="1" as="geometry">
            <mxPoint x="1112.5" y="-120.5" as="sourcePoint" />
            <mxPoint x="812.5" y="-120.5" as="targetPoint" />
          </mxGeometry>
        </mxCell>
        <mxCell id="q_NAWSHO8Kiw4g9SQnGk-163" value="" style="rounded=1;whiteSpace=wrap;html=1;" vertex="1" parent="1">
          <mxGeometry x="1100" y="190" width="310" height="60" as="geometry" />
        </mxCell>
        <mxCell id="q_NAWSHO8Kiw4g9SQnGk-164" value="" style="whiteSpace=wrap;html=1;aspect=fixed;gradientColor=#7ea6e0;fillColor=#dae8fc;strokeColor=#6c8ebf;" vertex="1" parent="1">
          <mxGeometry x="1110" y="200" width="40" height="40" as="geometry" />
        </mxCell>
        <mxCell id="q_NAWSHO8Kiw4g9SQnGk-165" value="" style="whiteSpace=wrap;html=1;aspect=fixed;gradientColor=#7ea6e0;fillColor=#dae8fc;strokeColor=#6c8ebf;" vertex="1" parent="1">
          <mxGeometry x="1159" y="200" width="40" height="40" as="geometry" />
        </mxCell>
        <mxCell id="q_NAWSHO8Kiw4g9SQnGk-166" value="" style="whiteSpace=wrap;html=1;aspect=fixed;gradientColor=#7ea6e0;fillColor=#dae8fc;strokeColor=#6c8ebf;" vertex="1" parent="1">
          <mxGeometry x="1210" y="200" width="40" height="40" as="geometry" />
        </mxCell>
        <mxCell id="q_NAWSHO8Kiw4g9SQnGk-167" value="" style="whiteSpace=wrap;html=1;aspect=fixed;gradientColor=#7ea6e0;fillColor=#dae8fc;strokeColor=#6c8ebf;" vertex="1" parent="1">
          <mxGeometry x="1260" y="200" width="40" height="40" as="geometry" />
        </mxCell>
        <mxCell id="q_NAWSHO8Kiw4g9SQnGk-168" value="" style="whiteSpace=wrap;html=1;aspect=fixed;gradientColor=#7ea6e0;fillColor=#dae8fc;strokeColor=#6c8ebf;" vertex="1" parent="1">
          <mxGeometry x="1310" y="200" width="40" height="40" as="geometry" />
        </mxCell>
        <mxCell id="q_NAWSHO8Kiw4g9SQnGk-169" value="" style="whiteSpace=wrap;html=1;aspect=fixed;gradientColor=#7ea6e0;fillColor=#dae8fc;strokeColor=#6c8ebf;" vertex="1" parent="1">
          <mxGeometry x="1360" y="200" width="40" height="40" as="geometry" />
        </mxCell>
        <mxCell id="q_NAWSHO8Kiw4g9SQnGk-171" value="&lt;b&gt;&lt;font color=&quot;#3399ff&quot; style=&quot;font-size: 16px&quot;&gt;Home&lt;/font&gt;&lt;/b&gt;:&lt;br&gt;&lt;b&gt;Stack&lt;/b&gt;:&amp;nbsp;&lt;br&gt;Home,&lt;br&gt;Program,&lt;br&gt;Class,&lt;br&gt;Challenges" style="rounded=1;whiteSpace=wrap;html=1;" vertex="1" parent="1">
          <mxGeometry x="850" y="240" width="150" height="180" as="geometry" />
        </mxCell>
        <mxCell id="q_NAWSHO8Kiw4g9SQnGk-172" value="&lt;b&gt;&lt;font color=&quot;#3399ff&quot; style=&quot;font-size: 16px&quot;&gt;Programs&lt;/font&gt;&lt;/b&gt;&lt;br&gt;&lt;b&gt;Stack&lt;/b&gt;:&amp;nbsp;&lt;br&gt;Program,&lt;br&gt;Class,&lt;br&gt;" style="rounded=1;whiteSpace=wrap;html=1;" vertex="1" parent="1">
          <mxGeometry x="1020" y="340" width="150" height="180" as="geometry" />
        </mxCell>
        <mxCell id="q_NAWSHO8Kiw4g9SQnGk-173" value="&lt;b&gt;&lt;font color=&quot;#3399ff&quot; style=&quot;font-size: 16px&quot;&gt;Workouts&lt;/font&gt;&lt;/b&gt;&lt;br&gt;&lt;b&gt;Stack&lt;/b&gt;:&amp;nbsp;&lt;br&gt;Workouts,&lt;br&gt;Filters,&lt;br&gt;ClassCategory,&lt;br&gt;Class,&lt;br&gt;Program" style="rounded=1;whiteSpace=wrap;html=1;" vertex="1" parent="1">
          <mxGeometry x="1150" y="540" width="200" height="180" as="geometry" />
        </mxCell>
        <mxCell id="q_NAWSHO8Kiw4g9SQnGk-175" value="&lt;b&gt;&lt;font color=&quot;#3399ff&quot; style=&quot;font-size: 16px&quot;&gt;Meditations&lt;br&gt;&lt;/font&gt;&lt;/b&gt;&lt;b&gt;Stack&lt;/b&gt;:&amp;nbsp;&lt;br&gt;Meditations,&lt;b&gt;&lt;font color=&quot;#3399ff&quot; style=&quot;font-size: 16px&quot;&gt;&lt;br&gt;&lt;/font&gt;&lt;/b&gt;" style="rounded=1;whiteSpace=wrap;html=1;" vertex="1" parent="1">
          <mxGeometry x="1350" y="340" width="150" height="180" as="geometry" />
        </mxCell>
        <mxCell id="q_NAWSHO8Kiw4g9SQnGk-176" value="&lt;b&gt;&lt;font color=&quot;#3399ff&quot; style=&quot;font-size: 16px&quot;&gt;Profile&lt;/font&gt;&lt;/b&gt;&lt;br&gt;&lt;b&gt;Stack&lt;/b&gt;:&amp;nbsp;&lt;br&gt;Profile,&lt;br&gt;EditProfile,&lt;br&gt;Settings,&lt;br&gt;Notifications,&lt;br&gt;Help,&lt;br&gt;Privacy,&lt;br&gt;Terms,&lt;br&gt;Class,&lt;br&gt;Challenges&lt;br&gt;&lt;br&gt;&lt;i&gt;&lt;font style=&quot;font-size: 9px&quot;&gt;&lt;b&gt;Note: EditProfile in the Nav.stack points to component SetUp not Edit Profile&lt;/b&gt;&lt;/font&gt;&lt;/i&gt;" style="rounded=1;whiteSpace=wrap;html=1;" vertex="1" parent="1">
          <mxGeometry x="1520" y="240" width="150" height="260" as="geometry" />
        </mxCell>
        <mxCell id="q_NAWSHO8Kiw4g9SQnGk-178" value="" style="shape=flexArrow;endArrow=classic;html=1;strokeWidth=2;fillColor=#cce5ff;strokeColor=#36393d;gradientColor=#A9C4EB;" edge="1" parent="1">
          <mxGeometry width="50" height="50" relative="1" as="geometry">
            <mxPoint x="1105" y="230" as="sourcePoint" />
            <mxPoint x="1015" y="270" as="targetPoint" />
          </mxGeometry>
        </mxCell>
        <mxCell id="q_NAWSHO8Kiw4g9SQnGk-179" value="" style="shape=flexArrow;endArrow=classic;html=1;strokeWidth=2;fillColor=#cce5ff;strokeColor=#36393d;gradientColor=#A9C4EB;" edge="1" parent="1">
          <mxGeometry width="50" height="50" relative="1" as="geometry">
            <mxPoint x="1180" y="240" as="sourcePoint" />
            <mxPoint x="1100" y="330" as="targetPoint" />
          </mxGeometry>
        </mxCell>
        <mxCell id="q_NAWSHO8Kiw4g9SQnGk-180" value="" style="shape=flexArrow;endArrow=classic;html=1;strokeWidth=2;fillColor=#cce5ff;strokeColor=#36393d;gradientColor=#A9C4EB;" edge="1" parent="1">
          <mxGeometry width="50" height="50" relative="1" as="geometry">
            <mxPoint x="1330" y="240" as="sourcePoint" />
            <mxPoint x="1420" y="330" as="targetPoint" />
          </mxGeometry>
        </mxCell>
        <mxCell id="q_NAWSHO8Kiw4g9SQnGk-181" value="" style="shape=flexArrow;endArrow=classic;html=1;strokeWidth=2;fillColor=#cce5ff;strokeColor=#36393d;gradientColor=#A9C4EB;" edge="1" parent="1">
          <mxGeometry width="50" height="50" relative="1" as="geometry">
            <mxPoint x="1230" y="240" as="sourcePoint" />
            <mxPoint x="1230" y="535" as="targetPoint" />
          </mxGeometry>
        </mxCell>
        <mxCell id="q_NAWSHO8Kiw4g9SQnGk-182" value="" style="shape=flexArrow;endArrow=classic;html=1;strokeWidth=2;entryX=0.695;entryY=-0.013;entryDx=0;entryDy=0;entryPerimeter=0;fillColor=#cce5ff;strokeColor=#36393d;gradientColor=#A9C4EB;" edge="1" parent="1" target="q_NAWSHO8Kiw4g9SQnGk-173">
          <mxGeometry width="50" height="50" relative="1" as="geometry">
            <mxPoint x="1281.95" y="240" as="sourcePoint" />
            <mxPoint x="1344" y="540" as="targetPoint" />
          </mxGeometry>
        </mxCell>
        <mxCell id="q_NAWSHO8Kiw4g9SQnGk-183" value="" style="shape=flexArrow;endArrow=classic;html=1;strokeWidth=2;fillColor=#cce5ff;strokeColor=#36393d;gradientColor=#A9C4EB;" edge="1" parent="1">
          <mxGeometry width="50" height="50" relative="1" as="geometry">
            <mxPoint x="1410" y="230" as="sourcePoint" />
            <mxPoint x="1500" y="270" as="targetPoint" />
          </mxGeometry>
        </mxCell>
        <mxCell id="q_NAWSHO8Kiw4g9SQnGk-187" value="&lt;font style=&quot;font-size: 14px&quot;&gt;&lt;b&gt;Trainers&lt;/b&gt;&lt;/font&gt;" style="text;html=1;strokeColor=none;fillColor=none;align=center;verticalAlign=middle;whiteSpace=wrap;rounded=0;" vertex="1" parent="1">
          <mxGeometry x="1125.5" y="86.63999999999999" width="40" height="20" as="geometry" />
        </mxCell>
        <mxCell id="q_NAWSHO8Kiw4g9SQnGk-191" value="" style="shape=flexArrow;endArrow=classic;html=1;strokeWidth=2;gradientColor=#ffffff;gradientDirection=west;fillColor=#333333;" edge="1" parent="1">
          <mxGeometry width="50" height="50" relative="1" as="geometry">
            <mxPoint x="1105" y="126.13999999999999" as="sourcePoint" />
            <mxPoint x="805" y="126.13999999999999" as="targetPoint" />
          </mxGeometry>
        </mxCell>
        <mxCell id="q_NAWSHO8Kiw4g9SQnGk-194" value="" style="shape=flexArrow;endArrow=classic;html=1;strokeWidth=2;gradientColor=#ffffff;fillColor=#333333;gradientDirection=west;" edge="1" parent="1">
          <mxGeometry width="50" height="50" relative="1" as="geometry">
            <mxPoint x="1112.5" y="6.640000000000001" as="sourcePoint" />
            <mxPoint x="1022.5" y="6.140000000000001" as="targetPoint" />
          </mxGeometry>
        </mxCell>
        <mxCell id="q_NAWSHO8Kiw4g9SQnGk-195" value="&amp;lt;&lt;b&gt;Section&lt;/b&gt;&amp;nbsp; &amp;nbsp;&amp;gt;&lt;br&gt;&amp;nbsp; &amp;nbsp; &amp;lt;&lt;b&gt;Carousel&lt;/b&gt;&amp;nbsp;&lt;br&gt;&amp;nbsp; &amp;nbsp; &amp;nbsp; &amp;nbsp; items=&amp;nbsp; &amp;nbsp; &amp;nbsp; {homeResult.data?.meditations}&lt;br&gt;&amp;nbsp; &amp;nbsp; &amp;nbsp; &amp;nbsp;renderItem={ item=&amp;gt;&lt;br&gt;&amp;nbsp; &amp;nbsp; &amp;nbsp; &amp;nbsp; &amp;lt;&lt;b&gt;MeditationCard &lt;/b&gt;&lt;br&gt;&amp;nbsp; &amp;nbsp; &amp;nbsp; &amp;nbsp; &amp;nbsp; &amp;nbsp; &amp;nbsp; &amp;nbsp; &amp;nbsp; meditation = ( item } /&amp;gt;" style="rounded=0;whiteSpace=wrap;html=1;align=left;glass=1;strokeColor=none;gradientColor=#99FFFF;fillColor=#CCFFFF;perimeterSpacing=4;" vertex="1" parent="1">
          <mxGeometry x="820" y="-65" width="200" height="140" as="geometry" />
        </mxCell>
        <mxCell id="q_NAWSHO8Kiw4g9SQnGk-198" value="&lt;font size=&quot;1&quot;&gt;&lt;b style=&quot;font-size: 11px&quot;&gt;gql type: meditations&lt;/b&gt;&lt;/font&gt;" style="text;html=1;strokeColor=none;fillColor=none;align=center;verticalAlign=middle;whiteSpace=wrap;rounded=0;" vertex="1" parent="1">
          <mxGeometry x="1100" y="-20" width="160" height="20" as="geometry" />
        </mxCell>
        <mxCell id="q_NAWSHO8Kiw4g9SQnGk-200" value="&amp;lt;ChallengeButton/&amp;gt;" style="rounded=0;whiteSpace=wrap;html=1;glass=1;strokeColor=#000000;fillColor=#E6E6E6;gradientColor=#99FFFF;" vertex="1" parent="1">
          <mxGeometry x="910" y="-445" width="120" height="60" as="geometry" />
        </mxCell>
        <mxCell id="q_NAWSHO8Kiw4g9SQnGk-201" value="&amp;lt;&lt;b&gt;Section&lt;/b&gt;&amp;nbsp; &amp;nbsp;&amp;gt;&lt;br&gt;&amp;nbsp; &amp;nbsp; &amp;lt;&lt;b&gt;Carousel&lt;/b&gt;&amp;nbsp;&lt;br&gt;&amp;nbsp; &amp;nbsp; &amp;nbsp; &amp;nbsp; items=&amp;nbsp; &amp;nbsp; &amp;nbsp; {homeResult.data?.workouts}&lt;br&gt;&amp;nbsp; &amp;nbsp; &amp;nbsp; &amp;nbsp;renderItem={ item=&amp;gt;&lt;br&gt;&amp;nbsp; &amp;nbsp; &amp;nbsp; &amp;nbsp; &amp;lt;&lt;b&gt;WorkoutCard &lt;/b&gt;&lt;br&gt;&amp;nbsp; &amp;nbsp; &amp;nbsp; &amp;nbsp; &amp;nbsp; &amp;nbsp; &amp;nbsp; &amp;nbsp; &amp;nbsp; workout = ( item }" style="rounded=0;whiteSpace=wrap;html=1;align=left;glass=1;strokeColor=none;gradientColor=#99FFFF;fillColor=#CCFFFF;perimeterSpacing=4;" vertex="1" parent="1">
          <mxGeometry x="820" y="-305" width="200" height="140" as="geometry" />
        </mxCell>
        <mxCell id="q_NAWSHO8Kiw4g9SQnGk-202" value="&amp;lt;&lt;b&gt;Section&lt;/b&gt;&amp;nbsp; &amp;nbsp;&amp;gt;&lt;br&gt;&amp;nbsp; &amp;nbsp; &amp;lt;&lt;b&gt;Carousel&lt;/b&gt;&amp;nbsp;&lt;br&gt;&amp;nbsp; &amp;nbsp; &amp;nbsp; &amp;nbsp; items=&amp;nbsp; &amp;nbsp; &amp;nbsp; {homeResult.data?.hydrowClasses}&lt;br&gt;&amp;nbsp; &amp;nbsp; &amp;nbsp; &amp;nbsp;renderItem={ item=&amp;gt;&lt;br&gt;&amp;nbsp; &amp;nbsp; &amp;nbsp; &amp;nbsp; &amp;lt;&lt;b&gt;ClassCard&lt;/b&gt;&lt;br&gt;&amp;nbsp; &amp;nbsp; &amp;nbsp; &amp;nbsp; &amp;nbsp; &amp;nbsp; &amp;nbsp; &amp;nbsp; &amp;nbsp; fitnessClass = ( item } &lt;br&gt;/&amp;gt;" style="rounded=0;whiteSpace=wrap;html=1;align=left;glass=1;strokeColor=none;gradientColor=#99FFFF;fillColor=#CCFFFF;perimeterSpacing=4;" vertex="1" parent="1">
          <mxGeometry x="610" y="-190" width="200" height="140" as="geometry" />
        </mxCell>
        <mxCell id="q_NAWSHO8Kiw4g9SQnGk-203" value="&lt;font size=&quot;1&quot;&gt;&lt;b style=&quot;font-size: 11px&quot;&gt;gql type:&amp;nbsp;&lt;/b&gt;&lt;/font&gt;&lt;span style=&quot;font-size: 11px&quot;&gt;&lt;b&gt;workouts&lt;/b&gt;&lt;/span&gt;" style="text;html=1;strokeColor=none;fillColor=none;align=center;verticalAlign=middle;whiteSpace=wrap;rounded=0;" vertex="1" parent="1">
          <mxGeometry x="1095" y="-260" width="160" height="20" as="geometry" />
        </mxCell>
        <mxCell id="q_NAWSHO8Kiw4g9SQnGk-204" value="&amp;lt;&lt;b&gt;Section&lt;/b&gt;&amp;nbsp; &amp;nbsp;&amp;gt;&lt;br&gt;&amp;nbsp; &amp;nbsp; &amp;lt;&lt;b&gt;Carousel&lt;/b&gt;&amp;nbsp;&lt;br&gt;&amp;nbsp; &amp;nbsp; &amp;nbsp; &amp;nbsp; items=&amp;nbsp; &amp;nbsp; &amp;nbsp; {homeResult.data?.trainers}&lt;br&gt;&amp;nbsp; &amp;nbsp; &amp;nbsp; &amp;nbsp;renderItem={ item=&amp;gt;&lt;br&gt;&amp;nbsp; &amp;nbsp; &amp;nbsp; &amp;nbsp; &amp;lt;&lt;b&gt;TrainerCard&lt;/b&gt;&lt;br&gt;&amp;nbsp; &amp;nbsp; &amp;nbsp; &amp;nbsp; &amp;nbsp; &amp;nbsp; &amp;nbsp; &amp;nbsp; &amp;nbsp; trainer = ( item }/&amp;gt;" style="rounded=0;whiteSpace=wrap;html=1;align=left;glass=1;strokeColor=none;gradientColor=#99FFFF;fillColor=#CCFFFF;perimeterSpacing=4;" vertex="1" parent="1">
          <mxGeometry x="600" y="56.64" width="200" height="140" as="geometry" />
        </mxCell>
        <mxCell id="q_NAWSHO8Kiw4g9SQnGk-209" value="" style="rounded=1;whiteSpace=wrap;html=1;" vertex="1" parent="1">
          <mxGeometry x="1117" y="-390" width="290" height="90" as="geometry" />
        </mxCell>
        <mxCell id="q_NAWSHO8Kiw4g9SQnGk-210" value="" style="whiteSpace=wrap;html=1;aspect=fixed;gradientColor=#7ea6e0;fillColor=#dae8fc;strokeColor=#6c8ebf;" vertex="1" parent="1">
          <mxGeometry x="1302" y="-385" width="80" height="80" as="geometry" />
        </mxCell>
        <mxCell id="q_NAWSHO8Kiw4g9SQnGk-211" value="" style="shape=flexArrow;endArrow=classic;html=1;gradientColor=#7ea6e0;fillColor=#dae8fc;strokeColor=#6c8ebf;gradientDirection=west;" edge="1" parent="1">
          <mxGeometry width="50" height="50" relative="1" as="geometry">
            <mxPoint x="1380" y="-345.5" as="sourcePoint" />
            <mxPoint x="1720" y="-345" as="targetPoint" />
          </mxGeometry>
        </mxCell>
        <mxCell id="q_NAWSHO8Kiw4g9SQnGk-213" value="&lt;span style=&quot;font-size: 14px&quot;&gt;&lt;b&gt;Popular Classes&lt;/b&gt;&lt;/span&gt;" style="text;html=1;strokeColor=none;fillColor=none;align=left;verticalAlign=middle;whiteSpace=wrap;rounded=0;" vertex="1" parent="1">
          <mxGeometry x="1127" y="-395" width="120" height="40" as="geometry" />
        </mxCell>
        <mxCell id="q_NAWSHO8Kiw4g9SQnGk-214" value="" style="shape=flexArrow;endArrow=classic;html=1;strokeWidth=2;gradientColor=#ffffff;gradientDirection=west;fillColor=#333333;" edge="1" parent="1">
          <mxGeometry width="50" height="50" relative="1" as="geometry">
            <mxPoint x="1125" y="-415" as="sourcePoint" />
            <mxPoint x="1035" y="-415.5" as="targetPoint" />
          </mxGeometry>
        </mxCell>
        <mxCell id="q_NAWSHO8Kiw4g9SQnGk-215" value="&amp;lt;&lt;b&gt;Section&lt;/b&gt;&amp;nbsp; &amp;nbsp;&amp;gt;&lt;br&gt;&amp;nbsp; &amp;nbsp; &amp;lt;&lt;b&gt;Carousel&lt;/b&gt;&amp;nbsp;&lt;br&gt;&amp;nbsp; &amp;nbsp; &amp;nbsp; &amp;nbsp; items=&amp;nbsp; &amp;nbsp; &amp;nbsp; {homeResult.data?.classes}&lt;br&gt;&amp;nbsp; &amp;nbsp; &amp;nbsp; &amp;nbsp;renderItem={ item=&amp;gt;&lt;br&gt;&amp;nbsp; &amp;nbsp; &amp;nbsp; &amp;nbsp; &amp;lt;&lt;b&gt;ClassCard&lt;/b&gt;&lt;br&gt;&amp;nbsp; &amp;nbsp; &amp;nbsp; &amp;nbsp; &amp;nbsp; &amp;nbsp; &amp;nbsp; &amp;nbsp; &amp;nbsp; fitnessClass = ( item }&lt;br&gt;&amp;nbsp; &amp;nbsp; &amp;nbsp; &amp;nbsp; &amp;nbsp; &amp;nbsp; /&amp;gt;" style="rounded=0;whiteSpace=wrap;html=1;align=left;glass=1;strokeColor=none;gradientColor=#99FFFF;fillColor=#CCFFFF;perimeterSpacing=4;" vertex="1" parent="1">
          <mxGeometry x="630" y="-430" width="200" height="140" as="geometry" />
        </mxCell>
        <mxCell id="q_NAWSHO8Kiw4g9SQnGk-216" value="&lt;font size=&quot;1&quot;&gt;&lt;b style=&quot;font-size: 11px&quot;&gt;gql type: classes&lt;/b&gt;&lt;/font&gt;" style="text;html=1;strokeColor=none;fillColor=none;align=center;verticalAlign=middle;whiteSpace=wrap;rounded=0;" vertex="1" parent="1">
          <mxGeometry x="1090" y="-370" width="160" height="20" as="geometry" />
        </mxCell>
        <mxCell id="q_NAWSHO8Kiw4g9SQnGk-116" value="" style="rounded=0;whiteSpace=wrap;html=1;" vertex="1" parent="1">
          <mxGeometry x="1122.51" y="-860" width="270" height="320" as="geometry" />
        </mxCell>
        <mxCell id="q_NAWSHO8Kiw4g9SQnGk-140" value="&lt;div style=&quot;text-align: left ; font-size: 13px&quot;&gt;&lt;b&gt;&lt;font style=&quot;font-size: 13px&quot;&gt;currentUserResult&lt;/font&gt;&lt;/b&gt;&lt;/div&gt;&lt;font style=&quot;font-size: 13px&quot;&gt;&lt;div style=&quot;text-align: left&quot;&gt;&lt;b&gt;&lt;font style=&quot;font-size: 13px&quot;&gt;.data?&lt;/font&gt;&lt;/b&gt;&lt;/div&gt;&lt;font style=&quot;font-size: 13px&quot;&gt;&lt;div style=&quot;text-align: left&quot;&gt;&lt;b&gt;&lt;font style=&quot;font-size: 13px&quot;&gt;.currentUser&lt;/font&gt;&lt;/b&gt;&lt;/div&gt;&lt;font style=&quot;font-size: 13px&quot;&gt;&lt;div style=&quot;text-align: left&quot;&gt;&lt;b&gt;&lt;font style=&quot;font-size: 13px&quot;&gt;.currentProgram&lt;/font&gt;&lt;/b&gt;&lt;/div&gt;&lt;div style=&quot;text-align: left&quot;&gt;&lt;span style=&quot;font-size: 14px&quot;&gt;&lt;br&gt;&lt;/span&gt;&lt;/div&gt;&lt;font color=&quot;#ff3333&quot; style=&quot;font-weight: bold ; font-size: 14px&quot;&gt;&lt;div style=&quot;text-align: left&quot;&gt;&lt;span&gt;?&lt;/span&gt;&lt;/div&gt;&lt;/font&gt;&lt;div style=&quot;text-align: left&quot;&gt;&lt;br&gt;&lt;/div&gt;&lt;span style=&quot;font-weight: bold ; font-size: 14px&quot;&gt;&lt;div style=&quot;text-align: left&quot;&gt;&lt;span&gt;Calander + Class&lt;/span&gt;&lt;/div&gt;&lt;div style=&quot;text-align: left&quot;&gt;&lt;span&gt;&lt;br&gt;&lt;/span&gt;&lt;/div&gt;&lt;/span&gt;&lt;font style=&quot;font-weight: bold ; font-size: 14px&quot; color=&quot;#ff0000&quot;&gt;&lt;div style=&quot;text-align: left&quot;&gt;&lt;span&gt;&amp;nbsp;:&lt;/span&gt;&lt;/div&gt;&lt;div style=&quot;text-align: left&quot;&gt;&lt;span&gt;&lt;br&gt;&lt;/span&gt;&lt;/div&gt;&lt;/font&gt;&lt;/font&gt;&lt;font style=&quot;font-size: 14px&quot;&gt;&lt;div style=&quot;text-align: left&quot;&gt;&lt;b&gt;MEGA&lt;/b&gt;&lt;/div&gt;&lt;/font&gt;&lt;/font&gt;&lt;/font&gt;" style="text;html=1;strokeColor=none;fillColor=none;align=center;verticalAlign=middle;whiteSpace=wrap;rounded=0;" vertex="1" parent="1">
          <mxGeometry x="1125.5" y="-804.0699999999999" width="123" height="208.13" as="geometry" />
        </mxCell>
        <mxCell id="q_NAWSHO8Kiw4g9SQnGk-136" value="" style="shape=flexArrow;endArrow=classic;html=1;strokeWidth=2;gradientColor=#ffffff;gradientDirection=west;fillColor=#333333;" edge="1" parent="1">
          <mxGeometry width="50" height="50" relative="1" as="geometry">
            <mxPoint x="1122.51" y="-610.69" as="sourcePoint" />
            <mxPoint x="880" y="-610.69" as="targetPoint" />
          </mxGeometry>
        </mxCell>
        <mxCell id="q_NAWSHO8Kiw4g9SQnGk-222" value="" style="shape=flexArrow;endArrow=classic;html=1;strokeWidth=2;gradientColor=#ffffff;fillColor=#333333;gradientDirection=west;exitX=0.003;exitY=0.58;exitDx=0;exitDy=0;exitPerimeter=0;" edge="1" parent="1" source="q_NAWSHO8Kiw4g9SQnGk-116" target="q_NAWSHO8Kiw4g9SQnGk-223">
          <mxGeometry width="50" height="50" relative="1" as="geometry">
            <mxPoint x="1120" y="-660" as="sourcePoint" />
            <mxPoint x="1020" y="-660" as="targetPoint" />
            <Array as="points">
              <mxPoint x="950" y="-680" />
            </Array>
          </mxGeometry>
        </mxCell>
        <mxCell id="q_NAWSHO8Kiw4g9SQnGk-223" value="&lt;span style=&quot;text-align: left&quot;&gt;&amp;lt;&lt;/span&gt;&lt;b style=&quot;text-align: left&quot;&gt;ExpandableCalendar&lt;/b&gt;&lt;span style=&quot;text-align: left&quot;&gt;&amp;nbsp;&lt;br&gt;program={ program }&lt;br&gt;&amp;nbsp;/ &amp;gt;&lt;br&gt;&lt;/span&gt;{ MainContent }&lt;br style=&quot;text-align: left&quot;&gt;&lt;span style=&quot;text-align: left&quot;&gt;&amp;nbsp;&amp;nbsp;&lt;/span&gt;" style="rounded=0;whiteSpace=wrap;html=1;glass=1;strokeColor=#000000;fillColor=#ffffff;gradientColor=#99FFFF;" vertex="1" parent="1">
          <mxGeometry x="790" y="-820" width="220" height="100" as="geometry" />
        </mxCell>
        <mxCell id="q_NAWSHO8Kiw4g9SQnGk-224" value="&lt;span&gt;&amp;lt;&lt;/span&gt;&lt;b&gt;HeaderCarousel&lt;/b&gt;&lt;span&gt;&amp;nbsp;&lt;br&gt;&amp;nbsp; &amp;nbsp; &amp;nbsp; &amp;nbsp; currentProgram = { program }&lt;br&gt;&amp;nbsp; &amp;nbsp; &amp;nbsp; &amp;nbsp; programs={ programsToShow.slice(0, MAX_PARAMS) }&lt;br&gt;&amp;nbsp;/ &amp;gt;&lt;br&gt;&lt;/span&gt;&lt;span&gt;&amp;nbsp; &amp;nbsp; &amp;nbsp; &amp;nbsp; &amp;nbsp; &amp;nbsp; { MainContent }&lt;/span&gt;&lt;br&gt;&lt;span&gt;&amp;nbsp;&amp;nbsp;&lt;/span&gt;" style="rounded=0;whiteSpace=wrap;html=1;glass=1;strokeColor=#000000;fillColor=#ffffff;gradientColor=#99FFFF;align=left;" vertex="1" parent="1">
          <mxGeometry x="542.5" y="-695.94" width="335" height="100" as="geometry" />
        </mxCell>
        <mxCell id="q_NAWSHO8Kiw4g9SQnGk-225" value="" style="group" vertex="1" connectable="0" parent="1">
          <mxGeometry x="1407" y="-670" width="560" height="140" as="geometry" />
        </mxCell>
        <mxCell id="q_NAWSHO8Kiw4g9SQnGk-125" value="" style="shape=flexArrow;endArrow=classic;html=1;fillColor=#cce5ff;strokeColor=#36393d;gradientColor=#A9C4EB;gradientDirection=west;" edge="1" parent="q_NAWSHO8Kiw4g9SQnGk-225">
          <mxGeometry width="50" height="50" relative="1" as="geometry">
            <mxPoint x="-10" y="60" as="sourcePoint" />
            <mxPoint x="350" y="60" as="targetPoint" />
          </mxGeometry>
        </mxCell>
        <mxCell id="q_NAWSHO8Kiw4g9SQnGk-226" value="" style="group" vertex="1" connectable="0" parent="q_NAWSHO8Kiw4g9SQnGk-225">
          <mxGeometry x="240" y="-60" width="320" height="200" as="geometry" />
        </mxCell>
        <mxCell id="q_NAWSHO8Kiw4g9SQnGk-227" value="" style="shape=flexArrow;endArrow=classic;html=1;fillColor=#cce5ff;strokeColor=#36393d;gradientColor=#A9C4EB;" edge="1" parent="q_NAWSHO8Kiw4g9SQnGk-226">
          <mxGeometry width="50" height="50" relative="1" as="geometry">
            <mxPoint x="-250" y="60" as="sourcePoint" />
            <mxPoint x="-140" y="60" as="targetPoint" />
          </mxGeometry>
        </mxCell>
        <mxCell id="q_NAWSHO8Kiw4g9SQnGk-244" value="&lt;blockquote style=&quot;margin: 0 0 0 40px ; border: none ; padding: 0px&quot;&gt;&lt;p style=&quot;line-height: 50%&quot;&gt;&lt;b&gt;&lt;font color=&quot;#0000ff&quot;&gt;nav&lt;/font&gt;&lt;/b&gt;=&#39;Program&#39;,&amp;nbsp;&lt;/p&gt;&lt;div&gt;&lt;b&gt;&lt;font color=&quot;#007fff&quot;&gt;params&lt;/font&gt;&lt;/b&gt;&lt;span&gt;: {&amp;nbsp;&lt;/span&gt;&lt;/div&gt;&lt;div&gt;programId: programId&lt;/div&gt;}&lt;br&gt;&lt;font color=&quot;#ff3333&quot;&gt;&lt;b&gt;component&lt;/b&gt;&lt;/font&gt;: MeditationModal&lt;/blockquote&gt;&lt;p&gt;&lt;/p&gt;" style="text;html=1;strokeColor=#36393d;fillColor=#cce5ff;align=left;verticalAlign=middle;whiteSpace=wrap;rounded=1;gradientColor=#7EA6E0;perimeterSpacing=1;labelPadding=7;arcSize=0;" vertex="1" parent="q_NAWSHO8Kiw4g9SQnGk-226">
          <mxGeometry x="120" y="50" width="200" height="150" as="geometry" />
        </mxCell>
        <mxCell id="q_NAWSHO8Kiw4g9SQnGk-134" value="" style="endArrow=none;html=1;strokeWidth=9;fillOpacity=87;strokeOpacity=87;strokeColor=#333333;" edge="1" parent="1" source="q_NAWSHO8Kiw4g9SQnGk-229">
          <mxGeometry width="50" height="50" relative="1" as="geometry">
            <mxPoint x="1255" y="280" as="sourcePoint" />
            <mxPoint x="1255" y="-960" as="targetPoint" />
          </mxGeometry>
        </mxCell>
        <mxCell id="q_NAWSHO8Kiw4g9SQnGk-229" value="&lt;p style=&quot;line-height: 90%&quot;&gt;&lt;font style=&quot;font-size: 16px&quot; color=&quot;#ff0000&quot;&gt;&lt;b&gt;query:&amp;nbsp;&lt;span style=&quot;font-family: &amp;#34;menlo&amp;#34; , &amp;#34;monaco&amp;#34; , &amp;#34;courier new&amp;#34; , monospace&quot;&gt;currentUserQuery&lt;/span&gt;&lt;/b&gt;&lt;/font&gt;&lt;/p&gt;&lt;p style=&quot;line-height: 90%&quot;&gt;&lt;font style=&quot;font-size: 16px&quot; color=&quot;#ff0000&quot;&gt;&lt;b&gt;&lt;span style=&quot;font-family: &amp;#34;menlo&amp;#34; , &amp;#34;monaco&amp;#34; , &amp;#34;courier new&amp;#34; , monospace&quot;&gt;&lt;br&gt;&lt;/span&gt;&lt;/b&gt;&lt;/font&gt;&lt;/p&gt;&lt;p style=&quot;line-height: 90%&quot;&gt;&lt;font style=&quot;font-size: 16px&quot; color=&quot;#cc00cc&quot;&gt;&lt;b&gt;&lt;span style=&quot;font-family: &amp;#34;menlo&amp;#34; , &amp;#34;monaco&amp;#34; , &amp;#34;courier new&amp;#34; , monospace&quot;&gt;&lt;br&gt;&lt;/span&gt;&lt;/b&gt;&lt;/font&gt;&lt;/p&gt;" style="shape=offPageConnector;whiteSpace=wrap;html=1;glass=1;strokeColor=#666666;gradientDirection=west;gradientColor=#b3b3b3;fillColor=#f5f5f5;" vertex="1" parent="1">
          <mxGeometry x="1120" y="-860" width="270" height="70" as="geometry" />
        </mxCell>
        <mxCell id="q_NAWSHO8Kiw4g9SQnGk-230" value="" style="endArrow=none;html=1;strokeWidth=9;entryX=0.5;entryY=1;entryDx=0;entryDy=0;fillOpacity=87;strokeOpacity=87;strokeColor=#333333;" edge="1" parent="1" target="q_NAWSHO8Kiw4g9SQnGk-229">
          <mxGeometry width="50" height="50" relative="1" as="geometry">
            <mxPoint x="1255" y="280" as="sourcePoint" />
            <mxPoint x="1255" y="-1080" as="targetPoint" />
          </mxGeometry>
        </mxCell>
        <mxCell id="q_NAWSHO8Kiw4g9SQnGk-232" value="" style="group" vertex="1" connectable="0" parent="1">
          <mxGeometry x="500" y="-570" width="590" height="120" as="geometry" />
        </mxCell>
        <mxCell id="q_NAWSHO8Kiw4g9SQnGk-189" value="" style="shape=dataStorage;whiteSpace=wrap;html=1;fixedSize=1;" vertex="1" parent="q_NAWSHO8Kiw4g9SQnGk-232">
          <mxGeometry width="590" height="120" as="geometry" />
        </mxCell>
        <mxCell id="q_NAWSHO8Kiw4g9SQnGk-190" value="&lt;h1&gt;NOTE&lt;/h1&gt;&lt;p&gt;Every component on this Screen uses a Section that gives a title, spacing and display hidden if no data is passed as props to the component, which wraps a Carousel Component that takes in a renderItem to callback a component to render. Hence displayed in the boxes below, is the component.&lt;/p&gt;&lt;p&gt;&lt;br&gt;&lt;/p&gt;" style="text;html=1;strokeColor=none;fillColor=none;spacing=5;spacingTop=-20;whiteSpace=wrap;overflow=hidden;rounded=0;" vertex="1" parent="q_NAWSHO8Kiw4g9SQnGk-232">
          <mxGeometry x="59" width="486.75000000000006" height="120" as="geometry" />
        </mxCell>
        <mxCell id="q_NAWSHO8Kiw4g9SQnGk-233" value="&lt;p style=&quot;line-height: 90%&quot;&gt;&lt;font style=&quot;font-size: 16px&quot; color=&quot;#ff0000&quot;&gt;&lt;b&gt;query:&amp;nbsp;&lt;span style=&quot;font-family: &amp;#34;menlo&amp;#34; , &amp;#34;monaco&amp;#34; , &amp;#34;courier new&amp;#34; , monospace&quot;&gt;homeQuery&lt;/span&gt;&lt;/b&gt;&lt;/font&gt;&lt;/p&gt;&lt;p style=&quot;line-height: 90%&quot;&gt;&lt;font style=&quot;font-size: 16px&quot; color=&quot;#cc00cc&quot;&gt;&lt;b&gt;&lt;span style=&quot;font-family: &amp;#34;menlo&amp;#34; , &amp;#34;monaco&amp;#34; , &amp;#34;courier new&amp;#34; , monospace&quot;&gt;&lt;br&gt;&lt;/span&gt;&lt;/b&gt;&lt;/font&gt;&lt;/p&gt;&lt;p style=&quot;line-height: 90%&quot;&gt;&lt;font style=&quot;font-size: 16px&quot; color=&quot;#cc00cc&quot;&gt;&lt;b&gt;&lt;span style=&quot;font-family: &amp;#34;menlo&amp;#34; , &amp;#34;monaco&amp;#34; , &amp;#34;courier new&amp;#34; , monospace&quot;&gt;&lt;br&gt;&lt;/span&gt;&lt;/b&gt;&lt;/font&gt;&lt;/p&gt;" style="shape=offPageConnector;whiteSpace=wrap;html=1;glass=1;strokeColor=#666666;gradientDirection=west;gradientColor=#b3b3b3;fillColor=#f5f5f5;" vertex="1" parent="1">
          <mxGeometry x="1120" y="-520" width="270" height="70" as="geometry" />
        </mxCell>
        <mxCell id="q_NAWSHO8Kiw4g9SQnGk-235" value="Mega Action" style="rounded=0;whiteSpace=wrap;html=1;glass=1;strokeColor=#6c8ebf;fillColor=#dae8fc;gradientColor=#7ea6e0;" vertex="1" parent="1">
          <mxGeometry x="1270" y="-625" width="92" height="20" as="geometry" />
        </mxCell>
        <mxCell id="q_NAWSHO8Kiw4g9SQnGk-236" value="Enrolled Action" style="rounded=0;whiteSpace=wrap;html=1;glass=1;strokeColor=#6c8ebf;fillColor=#dae8fc;gradientColor=#7ea6e0;" vertex="1" parent="1">
          <mxGeometry x="1270" y="-680" width="90" height="20" as="geometry" />
        </mxCell>
        <mxCell id="q_NAWSHO8Kiw4g9SQnGk-237" value="&lt;font size=&quot;1&quot;&gt;&lt;b style=&quot;font-size: 11px&quot;&gt;qgl type:&amp;nbsp;&lt;/b&gt;&lt;/font&gt;&lt;span style=&quot;font-size: 11px&quot;&gt;&lt;b&gt;hydrowClasses&lt;/b&gt;&lt;/span&gt;" style="text;html=1;strokeColor=none;fillColor=none;align=center;verticalAlign=middle;whiteSpace=wrap;rounded=0;" vertex="1" parent="1">
          <mxGeometry x="1105" y="-136.87" width="160" height="20" as="geometry" />
        </mxCell>
        <mxCell id="q_NAWSHO8Kiw4g9SQnGk-238" value="&lt;font size=&quot;1&quot;&gt;&lt;b style=&quot;font-size: 11px&quot;&gt;gql type: trainers&lt;/b&gt;&lt;/font&gt;" style="text;html=1;strokeColor=none;fillColor=none;align=center;verticalAlign=middle;whiteSpace=wrap;rounded=0;" vertex="1" parent="1">
          <mxGeometry x="1080" y="106.64" width="160" height="20" as="geometry" />
        </mxCell>
        <mxCell id="q_NAWSHO8Kiw4g9SQnGk-239" value="&lt;blockquote style=&quot;margin: 0 0 0 40px ; border: none ; padding: 0px&quot;&gt;&lt;p style=&quot;line-height: 6px&quot;&gt;&lt;b&gt;&lt;font color=&quot;#0000ff&quot;&gt;nav&lt;/font&gt;&lt;/b&gt;=&#39;Class&#39;,&amp;nbsp;&lt;/p&gt;&lt;div&gt;&lt;b&gt;&lt;font color=&quot;#007fff&quot;&gt;params&lt;/font&gt;&lt;/b&gt;: {&amp;nbsp;&lt;/div&gt;&lt;div&gt;fitnessClass.id&lt;/div&gt;&lt;p style=&quot;line-height: 50%&quot;&gt;}&lt;br&gt;&lt;font color=&quot;#ff3333&quot;&gt;&lt;b&gt;component&lt;/b&gt;&lt;/font&gt;: Class&lt;br&gt;&lt;/p&gt;&lt;/blockquote&gt;&lt;p&gt;&lt;/p&gt;" style="text;html=1;strokeColor=#36393d;fillColor=#cce5ff;align=left;verticalAlign=middle;whiteSpace=wrap;rounded=1;gradientColor=#7EA6E0;perimeterSpacing=1;labelPadding=7;arcSize=0;" vertex="1" parent="1">
          <mxGeometry x="1740" y="-190" width="200" height="150" as="geometry" />
        </mxCell>
        <mxCell id="q_NAWSHO8Kiw4g9SQnGk-240" value="&lt;blockquote style=&quot;margin: 0 0 0 40px ; border: none ; padding: 0px&quot;&gt;&lt;p style=&quot;line-height: 50%&quot;&gt;&lt;b&gt;&lt;font color=&quot;#0000ff&quot;&gt;nav&lt;/font&gt;&lt;/b&gt;=&#39;TrainerModal&#39;,&amp;nbsp;&lt;/p&gt;&lt;div&gt;&lt;b&gt;&lt;font color=&quot;#007fff&quot;&gt;params&lt;/font&gt;&lt;/b&gt;&lt;span&gt;: {&amp;nbsp;&lt;/span&gt;&lt;/div&gt;&lt;div&gt;trainerId: trainer.id&lt;/div&gt;}&lt;br&gt;&lt;font color=&quot;#ff3333&quot;&gt;&lt;b&gt;component&lt;/b&gt;&lt;/font&gt;: MeditationModal&lt;/blockquote&gt;&lt;p&gt;&lt;/p&gt;" style="text;html=1;strokeColor=#36393d;fillColor=#cce5ff;align=left;verticalAlign=middle;whiteSpace=wrap;rounded=1;gradientColor=#7EA6E0;perimeterSpacing=1;labelPadding=7;arcSize=0;" vertex="1" parent="1">
          <mxGeometry x="1730" y="56.64" width="200" height="150" as="geometry" />
        </mxCell>
        <mxCell id="q_NAWSHO8Kiw4g9SQnGk-241" value="&lt;blockquote style=&quot;margin: 0 0 0 40px ; border: none ; padding: 0px&quot;&gt;&lt;p style=&quot;line-height: 50%&quot;&gt;&lt;b&gt;&lt;font color=&quot;#0000ff&quot;&gt;nav&lt;/font&gt;&lt;/b&gt;=&#39;WorkoutPreviewModal&#39;,&amp;nbsp;&lt;/p&gt;&lt;div&gt;&lt;b&gt;&lt;font color=&quot;#007fff&quot;&gt;params&lt;/font&gt;&lt;/b&gt;&lt;span&gt;: {&amp;nbsp;&lt;/span&gt;&lt;/div&gt;&lt;div&gt;workoutId: workout.id&lt;/div&gt;}&lt;br&gt;&lt;font color=&quot;#ff3333&quot;&gt;&lt;b&gt;component&lt;/b&gt;&lt;/font&gt;: WorkoutPreviewModal&lt;/blockquote&gt;&lt;p&gt;&lt;/p&gt;" style="text;html=1;strokeColor=#36393d;fillColor=#cce5ff;align=left;verticalAlign=middle;whiteSpace=wrap;rounded=1;gradientColor=#7EA6E0;perimeterSpacing=1;labelPadding=7;arcSize=0;" vertex="1" parent="1">
          <mxGeometry x="1480" y="-315" width="200" height="150" as="geometry" />
        </mxCell>
        <mxCell id="q_NAWSHO8Kiw4g9SQnGk-242" value="&lt;blockquote style=&quot;margin: 0 0 0 40px ; border: none ; padding: 0px&quot;&gt;&lt;p style=&quot;line-height: 50%&quot;&gt;&lt;b&gt;&lt;font color=&quot;#0000ff&quot;&gt;nav&lt;/font&gt;&lt;/b&gt;=&#39;Class&#39;,&amp;nbsp;&lt;/p&gt;&lt;div&gt;&lt;b&gt;&lt;font color=&quot;#007fff&quot;&gt;params&lt;/font&gt;&lt;/b&gt;&lt;span&gt;: {&amp;nbsp;&lt;/span&gt;&lt;/div&gt;&lt;div&gt;fitnessClass.id&lt;/div&gt;}&lt;br&gt;&lt;font color=&quot;#ff3333&quot;&gt;&lt;b&gt;component&lt;/b&gt;&lt;/font&gt;: Class&lt;/blockquote&gt;&lt;p&gt;&lt;/p&gt;" style="text;html=1;strokeColor=#36393d;fillColor=#cce5ff;align=left;verticalAlign=middle;whiteSpace=wrap;rounded=1;gradientColor=#7EA6E0;perimeterSpacing=1;labelPadding=7;arcSize=0;" vertex="1" parent="1">
          <mxGeometry x="1730" y="-420" width="200" height="150" as="geometry" />
        </mxCell>
        <mxCell id="q_NAWSHO8Kiw4g9SQnGk-243" value="&lt;blockquote style=&quot;margin: 0 0 0 40px ; border: none ; padding: 0px&quot;&gt;&lt;p style=&quot;line-height: 50%&quot;&gt;&lt;b&gt;&lt;font color=&quot;#0000ff&quot;&gt;nav&lt;/font&gt;&lt;/b&gt;=&#39;Challenges&#39;,&amp;nbsp;&lt;/p&gt;&lt;font color=&quot;#ff3333&quot;&gt;&lt;b&gt;component&lt;/b&gt;&lt;/font&gt;: Challenges&lt;/blockquote&gt;&lt;p&gt;&lt;/p&gt;" style="text;html=1;strokeColor=#36393d;fillColor=#cce5ff;align=left;verticalAlign=middle;whiteSpace=wrap;rounded=1;gradientColor=#7EA6E0;perimeterSpacing=1;labelPadding=7;arcSize=0;" vertex="1" parent="1">
          <mxGeometry x="1480" y="-510" width="200" height="150" as="geometry" />
        </mxCell>
        <mxCell id="q_NAWSHO8Kiw4g9SQnGk-245" value="&lt;blockquote style=&quot;margin: 0 0 0 40px ; border: none ; padding: 0px&quot;&gt;&lt;p style=&quot;line-height: 50%&quot;&gt;&lt;b&gt;&lt;font color=&quot;#0000ff&quot;&gt;nav&lt;/font&gt;&lt;/b&gt;=&#39;Class&#39;,&amp;nbsp;&lt;/p&gt;&lt;div&gt;&lt;b&gt;&lt;font color=&quot;#007fff&quot;&gt;params&lt;/font&gt;&lt;/b&gt;&lt;span&gt;: {&amp;nbsp;&lt;/span&gt;&lt;/div&gt;&lt;div&gt;video,&lt;/div&gt;&lt;div&gt;programId,&lt;/div&gt;&lt;div&gt;position&lt;/div&gt;}&lt;br&gt;&lt;font color=&quot;#ff3333&quot;&gt;&lt;b&gt;component&lt;/b&gt;&lt;/font&gt;: ClassModal&lt;/blockquote&gt;&lt;p&gt;&lt;/p&gt;" style="text;html=1;strokeColor=#36393d;fillColor=#cce5ff;align=left;verticalAlign=middle;whiteSpace=wrap;rounded=1;gradientColor=#7EA6E0;perimeterSpacing=1;labelPadding=7;arcSize=0;" vertex="1" parent="1">
          <mxGeometry x="1730" y="-860" width="200" height="150" as="geometry" />
        </mxCell>
        <mxCell id="q_NAWSHO8Kiw4g9SQnGk-149" value="" style="whiteSpace=wrap;html=1;aspect=fixed;gradientColor=#7ea6e0;fillColor=#dae8fc;strokeColor=#6c8ebf;" vertex="1" parent="1">
          <mxGeometry x="1300" y="-40" width="80" height="80" as="geometry" />
        </mxCell>
        <mxCell id="q_NAWSHO8Kiw4g9SQnGk-145" value="" style="whiteSpace=wrap;html=1;aspect=fixed;gradientColor=#7ea6e0;fillColor=#dae8fc;strokeColor=#6c8ebf;" vertex="1" parent="1">
          <mxGeometry x="1302" y="86.63999999999999" width="80" height="80" as="geometry" />
        </mxCell>
        <mxCell id="q_NAWSHO8Kiw4g9SQnGk-246" value="&lt;font style=&quot;font-size: 33px&quot;&gt;NAVIGATION STACKS&lt;/font&gt;" style="text;html=1;strokeColor=none;fillColor=none;align=center;verticalAlign=middle;whiteSpace=wrap;rounded=0;glass=1;labelBackgroundColor=#33FFFF;" vertex="1" parent="1">
          <mxGeometry x="626" y="260" width="200" height="120" as="geometry" />
        </mxCell>
        <mxCell id="HFNR5i-n0qlMSI1-7nrS-2" value="" style="shape=flexArrow;endArrow=classic;html=1;fillColor=#cce5ff;strokeColor=#36393d;gradientColor=#A9C4EB;" edge="1" parent="1">
          <mxGeometry width="50" height="50" relative="1" as="geometry">
            <mxPoint x="1362" y="-720" as="sourcePoint" />
            <mxPoint x="1472" y="-720" as="targetPoint" />
          </mxGeometry>
        </mxCell>
        <mxCell id="HFNR5i-n0qlMSI1-7nrS-3" value="SelectedWorkout &lt;br&gt;selected={selected}&lt;br&gt;program={program}" style="text;html=1;align=center;verticalAlign=middle;resizable=0;points=[];autosize=1;" vertex="1" parent="1">
          <mxGeometry x="1470" y="-745.94" width="120" height="50" as="geometry" />
        </mxCell>
        <mxCell id="HFNR5i-n0qlMSI1-7nrS-4" value="Calandar Action" style="rounded=0;whiteSpace=wrap;html=1;glass=1;strokeColor=#6c8ebf;fillColor=#dae8fc;gradientColor=#7ea6e0;" vertex="1" parent="1">
          <mxGeometry x="1272" y="-730" width="90" height="20" as="geometry" />
        </mxCell>
        <mxCell id="HFNR5i-n0qlMSI1-7nrS-5" value="Calendar" style="text;html=1;strokeColor=none;fillColor=none;align=center;verticalAlign=middle;whiteSpace=wrap;rounded=0;glass=1;labelBackgroundColor=#33FFFF;" vertex="1" parent="1">
          <mxGeometry x="1302" y="-766" width="40" height="20" as="geometry" />
        </mxCell>
        <mxCell id="HFNR5i-n0qlMSI1-7nrS-6" value="MEGA" style="text;html=1;strokeColor=none;fillColor=none;align=center;verticalAlign=middle;whiteSpace=wrap;rounded=0;glass=1;labelBackgroundColor=#33FFFF;" vertex="1" parent="1">
          <mxGeometry x="1302" y="-645" width="40" height="20" as="geometry" />
        </mxCell>
        <mxCell id="HFNR5i-n0qlMSI1-7nrS-1" value="OneWorkout(classId) ? &quot;Completed&quot; :&amp;nbsp;&amp;nbsp;&lt;b style=&quot;text-align: left&quot;&gt;&lt;font color=&quot;#0000ff&quot;&gt;nav&lt;/font&gt;&lt;/b&gt;&lt;span style=&quot;text-align: left&quot;&gt;=&#39;Program&#39;,&amp;nbsp;&lt;/span&gt;&lt;div style=&quot;text-align: left&quot;&gt;&lt;b&gt;&lt;font color=&quot;#007fff&quot;&gt;params&lt;/font&gt;&lt;/b&gt;: {&amp;nbsp;&lt;/div&gt;&lt;div style=&quot;text-align: left&quot;&gt;programId: programId&lt;/div&gt;&lt;span style=&quot;text-align: left&quot;&gt;}&lt;/span&gt;&lt;br style=&quot;text-align: left&quot;&gt;&lt;font color=&quot;#ff3333&quot; style=&quot;text-align: left&quot;&gt;&lt;b&gt;component&lt;/b&gt;&lt;/font&gt;&lt;span style=&quot;text-align: left&quot;&gt;: MeditationModal&lt;/span&gt;" style="text;html=1;align=center;verticalAlign=middle;resizable=0;points=[];autosize=1;" vertex="1" parent="1">
          <mxGeometry x="1890" y="-1040" width="310" height="80" as="geometry" />
        </mxCell>
      </root>
    </mxGraphModel>
  </diagram>
  <diagram id="2qTioZhNE91ASUdFQRAJ" name="Class">
    <mxGraphModel dx="1041" dy="2089" grid="1" gridSize="10" guides="1" tooltips="1" connect="1" arrows="1" fold="1" page="1" pageScale="1" pageWidth="850" pageHeight="1100" math="0" shadow="0">
      <root>
        <mxCell id="M89hSryivmBgH4ZzBxvR-0" />
        <mxCell id="M89hSryivmBgH4ZzBxvR-1" parent="M89hSryivmBgH4ZzBxvR-0" />
        <mxCell id="M89hSryivmBgH4ZzBxvR-2" value="" style="rounded=1;whiteSpace=wrap;html=1;rotation=90;fillColor=#d5e8d4;strokeColor=#82b366;" vertex="1" parent="M89hSryivmBgH4ZzBxvR-1">
          <mxGeometry x="790.78" y="-496.09" width="933.44" height="325" as="geometry" />
        </mxCell>
        <mxCell id="M89hSryivmBgH4ZzBxvR-3" value="" style="rounded=0;whiteSpace=wrap;html=1;" vertex="1" parent="M89hSryivmBgH4ZzBxvR-1">
          <mxGeometry x="1125" y="-430" width="270" height="30" as="geometry" />
        </mxCell>
        <mxCell id="M89hSryivmBgH4ZzBxvR-4" value="" style="rounded=1;whiteSpace=wrap;html=1;" vertex="1" parent="M89hSryivmBgH4ZzBxvR-1">
          <mxGeometry x="1115" y="-285" width="290" height="185" as="geometry" />
        </mxCell>
        <mxCell id="M89hSryivmBgH4ZzBxvR-5" value="" style="rounded=1;whiteSpace=wrap;html=1;" vertex="1" parent="M89hSryivmBgH4ZzBxvR-1">
          <mxGeometry x="1302" y="-570" width="80" height="30" as="geometry" />
        </mxCell>
        <mxCell id="M89hSryivmBgH4ZzBxvR-7" value="link to program" style="whiteSpace=wrap;html=1;aspect=fixed;gradientColor=#7ea6e0;fillColor=#dae8fc;strokeColor=#6c8ebf;" vertex="1" parent="M89hSryivmBgH4ZzBxvR-1">
          <mxGeometry x="1302" y="-230" width="60" height="60" as="geometry" />
        </mxCell>
        <mxCell id="M89hSryivmBgH4ZzBxvR-9" value="" style="shape=flexArrow;endArrow=classic;html=1;gradientColor=#7ea6e0;fillColor=#dae8fc;strokeColor=#6c8ebf;gradientDirection=west;" edge="1" parent="M89hSryivmBgH4ZzBxvR-1">
          <mxGeometry width="50" height="50" relative="1" as="geometry">
            <mxPoint x="1362" y="-200.49999999999955" as="sourcePoint" />
            <mxPoint x="1452" y="-200" as="targetPoint" />
          </mxGeometry>
        </mxCell>
        <mxCell id="M89hSryivmBgH4ZzBxvR-11" value="&lt;font style=&quot;font-size: 48px&quot;&gt;CLASS&lt;/font&gt;" style="text;html=1;strokeColor=none;fillColor=none;align=center;verticalAlign=middle;whiteSpace=wrap;rounded=0;" vertex="1" parent="M89hSryivmBgH4ZzBxvR-1">
          <mxGeometry x="1179" y="-980" width="160" height="70" as="geometry" />
        </mxCell>
        <mxCell id="M89hSryivmBgH4ZzBxvR-12" value="&lt;b&gt;&lt;font style=&quot;font-size: 18px ; background-color: rgb(169 , 196 , 235)&quot;&gt;ACTIONS&lt;/font&gt;&lt;/b&gt;" style="text;html=1;strokeColor=none;fillColor=none;align=center;verticalAlign=middle;whiteSpace=wrap;rounded=0;" vertex="1" parent="M89hSryivmBgH4ZzBxvR-1">
          <mxGeometry x="1284" y="-920" width="70" height="40" as="geometry" />
        </mxCell>
        <mxCell id="M89hSryivmBgH4ZzBxvR-13" value="&lt;b&gt;&lt;font style=&quot;font-size: 18px&quot;&gt;SCREEN&lt;/font&gt;&lt;/b&gt;" style="text;html=1;strokeColor=none;fillColor=none;align=center;verticalAlign=middle;whiteSpace=wrap;rounded=0;labelBackgroundColor=#33FFFF;" vertex="1" parent="M89hSryivmBgH4ZzBxvR-1">
          <mxGeometry x="1161" y="-920" width="60" height="40" as="geometry" />
        </mxCell>
        <mxCell id="M89hSryivmBgH4ZzBxvR-21" value="&lt;span style=&quot;font-size: 14px&quot;&gt;&lt;b&gt;Details&lt;/b&gt;&lt;/span&gt;" style="text;html=1;strokeColor=none;fillColor=none;align=left;verticalAlign=middle;whiteSpace=wrap;rounded=0;" vertex="1" parent="M89hSryivmBgH4ZzBxvR-1">
          <mxGeometry x="1125" y="-290" width="155" height="40" as="geometry" />
        </mxCell>
        <mxCell id="M89hSryivmBgH4ZzBxvR-50" value="&lt;div&gt;&amp;nbsp;&amp;lt;&lt;b&gt;View&lt;/b&gt; style={styles.headingRow}&amp;gt;&lt;/div&gt;&lt;div&gt;&amp;nbsp; &amp;nbsp; &amp;nbsp; &amp;nbsp; &amp;nbsp; &amp;lt;&lt;b&gt;Text&lt;/b&gt; style={styles.headingText}&amp;gt;About this class&amp;lt;/Text&amp;gt;&lt;/div&gt;&lt;div&gt;&amp;nbsp; &amp;nbsp; &amp;nbsp; &amp;nbsp; &amp;nbsp; {fitnessClass.partner ? (&lt;/div&gt;&lt;div&gt;&amp;nbsp; &amp;nbsp; &amp;nbsp; &amp;nbsp; &amp;nbsp; &amp;nbsp; &amp;lt;&lt;b&gt;Pill&lt;/b&gt; type=&quot;exclusive&quot; text={fitnessClass.partner.name} /&amp;gt;&lt;/div&gt;&lt;div&gt;&amp;nbsp; &amp;nbsp; &amp;nbsp; &amp;nbsp; &amp;nbsp; ) : null}&lt;/div&gt;&lt;div&gt;&amp;nbsp; &amp;nbsp; &amp;nbsp; &amp;nbsp; &amp;lt;/View&amp;gt;&lt;/div&gt;" style="rounded=0;whiteSpace=wrap;html=1;glass=1;strokeColor=#000000;fillColor=#E6E6E6;gradientColor=#99FFFF;" vertex="1" parent="M89hSryivmBgH4ZzBxvR-1">
          <mxGeometry x="770" y="-520" width="260" height="135" as="geometry" />
        </mxCell>
        <mxCell id="M89hSryivmBgH4ZzBxvR-51" value="&lt;br&gt;&lt;br&gt;&lt;br&gt;&lt;br&gt;&lt;br&gt;&amp;lt;&lt;b&gt;Details&lt;/b&gt;&amp;nbsp;data={detailsData}&amp;nbsp; &amp;gt;&lt;br&gt;&lt;br&gt;&lt;br&gt;&lt;b&gt;NOTE&lt;/b&gt;&lt;br&gt;in detailsData exists a&amp;nbsp;&lt;br&gt;&lt;b&gt;&amp;lt;ProgramText&amp;gt; &lt;/b&gt;that renders a button and then a ternary operator on equipment to check if this values exists to display this row or not.&lt;br&gt;&amp;nbsp; &amp;nbsp;&amp;nbsp;" style="rounded=0;whiteSpace=wrap;html=1;align=left;glass=1;strokeColor=none;gradientColor=#99FFFF;fillColor=#CCFFFF;perimeterSpacing=4;" vertex="1" parent="M89hSryivmBgH4ZzBxvR-1">
          <mxGeometry x="840" y="-360" width="200" height="235" as="geometry" />
        </mxCell>
        <mxCell id="M89hSryivmBgH4ZzBxvR-53" value="&lt;font size=&quot;1&quot;&gt;&lt;b style=&quot;font-size: 11px&quot;&gt;gql type:&amp;nbsp;&lt;/b&gt;&lt;/font&gt;&lt;span style=&quot;font-size: 11px&quot;&gt;&lt;b&gt;workouts&lt;/b&gt;&lt;/span&gt;" style="text;html=1;strokeColor=none;fillColor=none;align=center;verticalAlign=middle;whiteSpace=wrap;rounded=0;" vertex="1" parent="M89hSryivmBgH4ZzBxvR-1">
          <mxGeometry x="1095" y="-260" width="160" height="20" as="geometry" />
        </mxCell>
        <mxCell id="M89hSryivmBgH4ZzBxvR-55" value="" style="rounded=1;whiteSpace=wrap;html=1;" vertex="1" parent="M89hSryivmBgH4ZzBxvR-1">
          <mxGeometry x="1117" y="-390" width="290" height="90" as="geometry" />
        </mxCell>
        <mxCell id="M89hSryivmBgH4ZzBxvR-58" value="&lt;span style=&quot;font-size: 14px&quot;&gt;&lt;b&gt;Equipment&lt;/b&gt;&lt;/span&gt;" style="text;html=1;strokeColor=none;fillColor=none;align=left;verticalAlign=middle;whiteSpace=wrap;rounded=0;" vertex="1" parent="M89hSryivmBgH4ZzBxvR-1">
          <mxGeometry x="1127" y="-395" width="120" height="40" as="geometry" />
        </mxCell>
        <mxCell id="M89hSryivmBgH4ZzBxvR-59" value="" style="shape=flexArrow;endArrow=classic;html=1;strokeWidth=2;gradientColor=#ffffff;gradientDirection=west;fillColor=#333333;" edge="1" parent="M89hSryivmBgH4ZzBxvR-1">
          <mxGeometry width="50" height="50" relative="1" as="geometry">
            <mxPoint x="1125.0000000000005" y="-415" as="sourcePoint" />
            <mxPoint x="1035.0000000000005" y="-415.49999999999955" as="targetPoint" />
          </mxGeometry>
        </mxCell>
        <mxCell id="M89hSryivmBgH4ZzBxvR-60" value="&lt;div&gt;&amp;nbsp;&amp;lt;&lt;b&gt;ProgramText&lt;/b&gt; key={prog.id} programId={prog.id}&amp;gt;&lt;/div&gt;&lt;div&gt;&amp;nbsp; &amp;nbsp; &amp;nbsp; &amp;nbsp; &amp;nbsp; &amp;nbsp; {prog.name}&lt;/div&gt;&lt;div&gt;&amp;nbsp; &amp;nbsp; &amp;nbsp; &amp;nbsp; &amp;nbsp; &amp;lt;/&lt;b&gt;ProgramText&lt;/b&gt;&amp;gt;&lt;/div&gt;" style="rounded=0;whiteSpace=wrap;html=1;align=left;glass=1;strokeColor=none;gradientColor=#99FFFF;fillColor=#CCFFFF;perimeterSpacing=4;" vertex="1" parent="M89hSryivmBgH4ZzBxvR-1">
          <mxGeometry x="559.9999999999999" y="-403.75" width="200" height="140" as="geometry" />
        </mxCell>
        <mxCell id="M89hSryivmBgH4ZzBxvR-61" value="&lt;font size=&quot;1&quot;&gt;&lt;b style=&quot;font-size: 11px&quot;&gt;gql type: classes&lt;/b&gt;&lt;/font&gt;" style="text;html=1;strokeColor=none;fillColor=none;align=center;verticalAlign=middle;whiteSpace=wrap;rounded=0;" vertex="1" parent="M89hSryivmBgH4ZzBxvR-1">
          <mxGeometry x="1090" y="-370" width="160" height="20" as="geometry" />
        </mxCell>
        <mxCell id="M89hSryivmBgH4ZzBxvR-62" value="" style="rounded=0;whiteSpace=wrap;html=1;" vertex="1" parent="M89hSryivmBgH4ZzBxvR-1">
          <mxGeometry x="1122.5" y="-780" width="270" height="320" as="geometry" />
        </mxCell>
        <mxCell id="M89hSryivmBgH4ZzBxvR-64" value="" style="shape=flexArrow;endArrow=classic;html=1;strokeWidth=2;gradientColor=#ffffff;gradientDirection=west;fillColor=#333333;" edge="1" parent="M89hSryivmBgH4ZzBxvR-1">
          <mxGeometry width="50" height="50" relative="1" as="geometry">
            <mxPoint x="1122.5100000000002" y="-610.69" as="sourcePoint" />
            <mxPoint x="990" y="-611" as="targetPoint" />
          </mxGeometry>
        </mxCell>
        <mxCell id="M89hSryivmBgH4ZzBxvR-67" value="&lt;div&gt;&amp;nbsp;&amp;lt;&lt;b&gt;PageWithImageHeader&lt;/b&gt;&lt;/div&gt;&lt;div&gt;&amp;nbsp; &amp;nbsp; &amp;nbsp; imageSrc={fitnessClass.imageUrl}&lt;/div&gt;&lt;div&gt;&amp;nbsp; &amp;nbsp; &amp;nbsp; &lt;b&gt;imageForeground&lt;/b&gt;={&lt;/div&gt;&lt;div&gt;&amp;nbsp; &amp;nbsp; &amp;nbsp; &amp;nbsp; // eslint-disable-next-line react/jsx-wrap-multilines&lt;/div&gt;&lt;div&gt;&amp;nbsp; &amp;nbsp; &amp;nbsp; &amp;nbsp; &amp;lt;&lt;b&gt;ImageForeground&lt;/b&gt;&lt;/div&gt;&lt;div&gt;&amp;nbsp; &amp;nbsp; &amp;nbsp; &amp;nbsp; &amp;nbsp; fitnessClass={fitnessClass}&lt;/div&gt;&lt;div&gt;&amp;nbsp; &amp;nbsp; &amp;nbsp; &amp;nbsp; &amp;nbsp; video={video}&lt;/div&gt;&lt;div&gt;&amp;nbsp; &amp;nbsp; &amp;nbsp; &amp;nbsp; &amp;nbsp; position={position}&lt;/div&gt;&lt;div&gt;&amp;nbsp; &amp;nbsp; &amp;nbsp; &amp;nbsp; &amp;nbsp; program={program}&lt;/div&gt;&lt;div&gt;&amp;nbsp; &amp;nbsp; &amp;nbsp; &amp;nbsp; /&amp;gt;&lt;/div&gt;&lt;div&gt;&amp;nbsp; &amp;nbsp; &amp;nbsp; }&lt;/div&gt;&lt;div&gt;&amp;nbsp; &amp;nbsp; &amp;nbsp; stickyHeader={{ title: fitnessClass.name }}&lt;/div&gt;&lt;div&gt;&amp;nbsp; &amp;nbsp; &amp;nbsp; onRefresh={handleRefresh}&lt;/div&gt;&lt;div&gt;&amp;nbsp; &amp;nbsp; &amp;nbsp; isRefreshing={isRefreshing}&lt;/div&gt;&lt;div&gt;&amp;nbsp; &amp;nbsp; &amp;gt;&lt;/div&gt;&lt;div&gt;&amp;nbsp; &amp;nbsp; &amp;nbsp;&amp;nbsp;&lt;/div&gt;" style="rounded=0;whiteSpace=wrap;html=1;glass=1;strokeColor=#000000;fillColor=#ffffff;gradientColor=#99FFFF;align=left;" vertex="1" parent="M89hSryivmBgH4ZzBxvR-1">
          <mxGeometry x="650" y="-830" width="335" height="270" as="geometry" />
        </mxCell>
        <mxCell id="M89hSryivmBgH4ZzBxvR-73" value="" style="endArrow=none;html=1;strokeWidth=9;fillOpacity=87;strokeOpacity=87;strokeColor=#333333;entryX=0.5;entryY=1;entryDx=0;entryDy=0;" edge="1" parent="M89hSryivmBgH4ZzBxvR-1" source="M89hSryivmBgH4ZzBxvR-74" target="M89hSryivmBgH4ZzBxvR-11">
          <mxGeometry width="50" height="50" relative="1" as="geometry">
            <mxPoint x="1255" y="280" as="sourcePoint" />
            <mxPoint x="1255" y="-870" as="targetPoint" />
          </mxGeometry>
        </mxCell>
        <mxCell id="M89hSryivmBgH4ZzBxvR-74" value="&lt;p style=&quot;line-height: 90% ; font-size: 14px&quot;&gt;&lt;font style=&quot;font-size: 14px&quot;&gt;&lt;font color=&quot;#ff0000&quot; style=&quot;font-size: 14px&quot;&gt;&lt;b&gt;programByIdQuery&amp;nbsp;&lt;/b&gt;&lt;/font&gt;&lt;b style=&quot;color: rgb(255 , 0 , 0)&quot;&gt;or&amp;nbsp;&lt;/b&gt;&lt;/font&gt;&lt;/p&gt;&lt;p style=&quot;line-height: 90% ; font-size: 14px&quot;&gt;&lt;font color=&quot;#ff0000&quot; style=&quot;font-size: 14px&quot;&gt;&lt;b&gt;&lt;font style=&quot;font-size: 14px&quot;&gt;classByIdQuery&lt;/font&gt;&lt;/b&gt;&lt;br&gt;&lt;/font&gt;&lt;/p&gt;" style="shape=offPageConnector;whiteSpace=wrap;html=1;glass=1;strokeColor=#666666;gradientDirection=west;gradientColor=#b3b3b3;fillColor=#f5f5f5;" vertex="1" parent="M89hSryivmBgH4ZzBxvR-1">
          <mxGeometry x="1120" y="-780" width="270" height="70" as="geometry" />
        </mxCell>
        <mxCell id="M89hSryivmBgH4ZzBxvR-75" value="" style="endArrow=none;html=1;strokeWidth=9;entryX=0.5;entryY=1;entryDx=0;entryDy=0;fillOpacity=87;strokeOpacity=87;strokeColor=#333333;" edge="1" parent="M89hSryivmBgH4ZzBxvR-1" target="M89hSryivmBgH4ZzBxvR-74">
          <mxGeometry width="50" height="50" relative="1" as="geometry">
            <mxPoint x="1255" y="130" as="sourcePoint" />
            <mxPoint x="1255" y="-1080" as="targetPoint" />
          </mxGeometry>
        </mxCell>
        <mxCell id="M89hSryivmBgH4ZzBxvR-76" value="" style="group" vertex="1" connectable="0" parent="M89hSryivmBgH4ZzBxvR-1">
          <mxGeometry x="490" y="-1010" width="590" height="120" as="geometry" />
        </mxCell>
        <mxCell id="M89hSryivmBgH4ZzBxvR-77" value="" style="shape=dataStorage;whiteSpace=wrap;html=1;fixedSize=1;" vertex="1" parent="M89hSryivmBgH4ZzBxvR-76">
          <mxGeometry width="590" height="120" as="geometry" />
        </mxCell>
        <mxCell id="M89hSryivmBgH4ZzBxvR-78" value="&lt;h1&gt;NOTE&lt;/h1&gt;&lt;p&gt;Every component on this Screen uses a Section that gives a title, spacing and display hidden if no data is passed as props to the component, which wraps a Carousel Component that takes in a renderItem to callback a component to render. Hence displayed in the boxes below, is the component.&lt;/p&gt;&lt;p&gt;&lt;br&gt;&lt;/p&gt;" style="text;html=1;strokeColor=none;fillColor=none;spacing=5;spacingTop=-20;whiteSpace=wrap;overflow=hidden;rounded=0;" vertex="1" parent="M89hSryivmBgH4ZzBxvR-76">
          <mxGeometry x="59" width="486.75000000000006" height="120" as="geometry" />
        </mxCell>
        <mxCell id="0XJd0TNq_rlp-idIrC8R-6" style="edgeStyle=orthogonalEdgeStyle;rounded=0;orthogonalLoop=1;jettySize=auto;html=1;exitX=1;exitY=0;exitDx=0;exitDy=0;entryX=-0.005;entryY=0.428;entryDx=0;entryDy=0;entryPerimeter=0;strokeColor=#333333;strokeWidth=2;fillColor=#333333;gradientColor=#A9C4EB;" edge="1" parent="M89hSryivmBgH4ZzBxvR-1" source="M89hSryivmBgH4ZzBxvR-81" target="M89hSryivmBgH4ZzBxvR-89">
          <mxGeometry relative="1" as="geometry" />
        </mxCell>
        <mxCell id="0XJd0TNq_rlp-idIrC8R-7" style="edgeStyle=orthogonalEdgeStyle;rounded=0;orthogonalLoop=1;jettySize=auto;html=1;exitX=1;exitY=0.75;exitDx=0;exitDy=0;entryX=0;entryY=0.75;entryDx=0;entryDy=0;strokeColor=#333333;strokeWidth=2;fillColor=#333333;gradientColor=#A9C4EB;" edge="1" parent="M89hSryivmBgH4ZzBxvR-1" source="M89hSryivmBgH4ZzBxvR-81" target="0XJd0TNq_rlp-idIrC8R-0">
          <mxGeometry relative="1" as="geometry" />
        </mxCell>
        <mxCell id="M89hSryivmBgH4ZzBxvR-81" value="Program / Clsas" style="rounded=0;whiteSpace=wrap;html=1;glass=1;strokeColor=#6c8ebf;fillColor=#dae8fc;gradientColor=#7ea6e0;" vertex="1" parent="M89hSryivmBgH4ZzBxvR-1">
          <mxGeometry x="1275" y="-650" width="102" height="20" as="geometry" />
        </mxCell>
        <mxCell id="M89hSryivmBgH4ZzBxvR-86" value="&lt;blockquote style=&quot;margin: 0 0 0 40px ; border: none ; padding: 0px&quot;&gt;&lt;p style=&quot;line-height: 50%&quot;&gt;&lt;b&gt;&lt;font color=&quot;#0000ff&quot;&gt;nav&lt;/font&gt;&lt;/b&gt;=&#39;Program&#39;,&amp;nbsp;&lt;/p&gt;&lt;div&gt;&lt;b&gt;&lt;font color=&quot;#007fff&quot;&gt;params&lt;/font&gt;&lt;/b&gt;&lt;span&gt;: {&amp;nbsp;&lt;/span&gt;&lt;/div&gt;&lt;div&gt;programId: programId&lt;/div&gt;}&lt;br&gt;&lt;font color=&quot;#ff3333&quot;&gt;&lt;b&gt;component&lt;/b&gt;&lt;/font&gt;: Program&lt;/blockquote&gt;&lt;p&gt;&lt;/p&gt;" style="text;html=1;strokeColor=#36393d;fillColor=#cce5ff;align=left;verticalAlign=middle;whiteSpace=wrap;rounded=1;gradientColor=#7EA6E0;perimeterSpacing=1;labelPadding=7;arcSize=0;" vertex="1" parent="M89hSryivmBgH4ZzBxvR-1">
          <mxGeometry x="1460" y="-275" width="200" height="150" as="geometry" />
        </mxCell>
        <mxCell id="M89hSryivmBgH4ZzBxvR-89" value="&lt;blockquote style=&quot;margin: 0 0 0 40px ; border: none ; padding: 0px&quot;&gt;&lt;p style=&quot;line-height: 50%&quot;&gt;&lt;br&gt;&lt;/p&gt;&lt;/blockquote&gt;&lt;p&gt;&lt;/p&gt;" style="text;html=1;strokeColor=#36393d;fillColor=#cce5ff;align=left;verticalAlign=middle;whiteSpace=wrap;rounded=1;gradientColor=#7EA6E0;perimeterSpacing=1;labelPadding=7;arcSize=0;" vertex="1" parent="M89hSryivmBgH4ZzBxvR-1">
          <mxGeometry x="1560" y="-840" width="200" height="150" as="geometry" />
        </mxCell>
        <mxCell id="M89hSryivmBgH4ZzBxvR-93" value="&lt;b&gt;CHART&lt;/b&gt;" style="rounded=1;whiteSpace=wrap;html=1;" vertex="1" parent="M89hSryivmBgH4ZzBxvR-1">
          <mxGeometry x="1110" y="-90" width="290" height="210" as="geometry" />
        </mxCell>
        <mxCell id="M89hSryivmBgH4ZzBxvR-95" value="&amp;lt;&lt;b&gt;RadarChart data={fitnessClass.targetPercentages}&lt;/b&gt;&amp;nbsp; &amp;nbsp;/&amp;gt;&lt;br&gt;&amp;nbsp; &amp;nbsp;&amp;nbsp;" style="rounded=0;whiteSpace=wrap;html=1;align=left;glass=1;strokeColor=none;gradientColor=#99FFFF;fillColor=#CCFFFF;perimeterSpacing=4;" vertex="1" parent="M89hSryivmBgH4ZzBxvR-1">
          <mxGeometry x="830" y="10" width="200" height="80" as="geometry" />
        </mxCell>
        <mxCell id="M89hSryivmBgH4ZzBxvR-96" value="" style="shape=flexArrow;endArrow=classic;html=1;strokeWidth=2;gradientColor=#ffffff;gradientDirection=west;fillColor=#333333;" edge="1" parent="M89hSryivmBgH4ZzBxvR-1">
          <mxGeometry width="50" height="50" relative="1" as="geometry">
            <mxPoint x="1110.0000000000005" y="50" as="sourcePoint" />
            <mxPoint x="1020.0000000000005" y="49.500000000000455" as="targetPoint" />
          </mxGeometry>
        </mxCell>
        <mxCell id="M89hSryivmBgH4ZzBxvR-25" value="" style="shape=flexArrow;endArrow=classic;html=1;strokeWidth=2;gradientColor=#ffffff;gradientDirection=west;fillColor=#333333;" edge="1" parent="M89hSryivmBgH4ZzBxvR-1">
          <mxGeometry width="50" height="50" relative="1" as="geometry">
            <mxPoint x="1115.0000000000005" y="-179.5" as="sourcePoint" />
            <mxPoint x="1025.0000000000005" y="-179.99999999999955" as="targetPoint" />
          </mxGeometry>
        </mxCell>
        <mxCell id="M89hSryivmBgH4ZzBxvR-24" value="" style="shape=flexArrow;endArrow=classic;html=1;strokeWidth=2;gradientColor=#ffffff;gradientDirection=west;fillColor=#1A1A1A;" edge="1" parent="M89hSryivmBgH4ZzBxvR-1">
          <mxGeometry width="50" height="50" relative="1" as="geometry">
            <mxPoint x="1100" y="-345" as="sourcePoint" />
            <mxPoint x="770" y="-345" as="targetPoint" />
          </mxGeometry>
        </mxCell>
        <mxCell id="M89hSryivmBgH4ZzBxvR-99" value="&lt;b&gt;getClassRouteParams&lt;/b&gt;" style="text;html=1;align=center;verticalAlign=middle;resizable=0;points=[];autosize=1;" vertex="1" parent="M89hSryivmBgH4ZzBxvR-1">
          <mxGeometry x="1580" y="-860" width="140" height="20" as="geometry" />
        </mxCell>
        <mxCell id="M89hSryivmBgH4ZzBxvR-100" value="Sets Params and returns&lt;br&gt;&lt;br&gt;&amp;nbsp;classId: params.classId,&lt;br&gt;&lt;br&gt;&amp;nbsp;video: undefined,&lt;br&gt;&amp;nbsp;programId: undefined,&lt;br&gt;&amp;nbsp;position: undefined" style="text;html=1;strokeColor=none;fillColor=none;align=center;verticalAlign=middle;whiteSpace=wrap;rounded=0;glass=1;labelBackgroundColor=#33FFFF;" vertex="1" parent="M89hSryivmBgH4ZzBxvR-1">
          <mxGeometry x="1580" y="-830" width="160" height="130" as="geometry" />
        </mxCell>
        <mxCell id="0XJd0TNq_rlp-idIrC8R-0" value="&lt;blockquote style=&quot;margin: 0 0 0 40px ; border: none ; padding: 0px&quot;&gt;&lt;p style=&quot;line-height: 50%&quot;&gt;&lt;br&gt;&lt;/p&gt;&lt;/blockquote&gt;&lt;p&gt;&lt;/p&gt;" style="text;html=1;strokeColor=#36393d;fillColor=#cce5ff;align=left;verticalAlign=middle;whiteSpace=wrap;rounded=1;gradientColor=#7EA6E0;perimeterSpacing=1;labelPadding=7;arcSize=0;" vertex="1" parent="M89hSryivmBgH4ZzBxvR-1">
          <mxGeometry x="1560" y="-660" width="200" height="150" as="geometry" />
        </mxCell>
        <mxCell id="0XJd0TNq_rlp-idIrC8R-1" value="&lt;b&gt;getClassRouteParams&lt;/b&gt;" style="text;html=1;align=center;verticalAlign=middle;resizable=0;points=[];autosize=1;" vertex="1" parent="M89hSryivmBgH4ZzBxvR-1">
          <mxGeometry x="1580" y="-680" width="140" height="20" as="geometry" />
        </mxCell>
        <mxCell id="0XJd0TNq_rlp-idIrC8R-2" value="Sets Params and returns&lt;br&gt;&lt;br&gt;&amp;nbsp;classId: undefined,&lt;br&gt;&lt;br&gt;&amp;nbsp;video: params.video,&lt;br&gt;&amp;nbsp;programId: params.programId,&lt;br&gt;&amp;nbsp;position: params.position" style="text;html=1;strokeColor=none;fillColor=none;align=center;verticalAlign=middle;whiteSpace=wrap;rounded=0;glass=1;labelBackgroundColor=#33FFFF;" vertex="1" parent="M89hSryivmBgH4ZzBxvR-1">
          <mxGeometry x="1580" y="-650" width="160" height="130" as="geometry" />
        </mxCell>
        <mxCell id="0XJd0TNq_rlp-idIrC8R-9" value="&lt;i&gt;route.params&lt;/i&gt;" style="text;html=1;align=center;verticalAlign=middle;resizable=0;points=[];autosize=1;" vertex="1" parent="M89hSryivmBgH4ZzBxvR-1">
          <mxGeometry x="1420" y="-660" width="90" height="20" as="geometry" />
        </mxCell>
        <mxCell id="0XJd0TNq_rlp-idIrC8R-10" value="&lt;span style=&quot;font-size: 11px&quot;&gt;&lt;b&gt;if Class being displayed&lt;/b&gt;&lt;/span&gt;" style="text;html=1;strokeColor=none;fillColor=none;align=center;verticalAlign=middle;whiteSpace=wrap;rounded=0;" vertex="1" parent="M89hSryivmBgH4ZzBxvR-1">
          <mxGeometry x="1255" y="-260" width="160" height="20" as="geometry" />
        </mxCell>
        <mxCell id="0XJd0TNq_rlp-idIrC8R-11" value="&lt;b&gt;&lt;br&gt;Params are checked &lt;br&gt;for type&lt;br&gt;&lt;/b&gt;" style="text;html=1;align=center;verticalAlign=middle;resizable=0;points=[];autosize=1;" vertex="1" parent="M89hSryivmBgH4ZzBxvR-1">
          <mxGeometry x="1420" y="-720" width="130" height="50" as="geometry" />
        </mxCell>
        <mxCell id="0XJd0TNq_rlp-idIrC8R-12" value="&lt;b&gt;&lt;br&gt;&lt;br&gt;&lt;br&gt;&lt;br&gt;&lt;/b&gt;" style="text;html=1;align=center;verticalAlign=middle;resizable=0;points=[];autosize=1;" vertex="1" parent="M89hSryivmBgH4ZzBxvR-1">
          <mxGeometry x="1840" y="-750" width="20" height="60" as="geometry" />
        </mxCell>
        <mxCell id="0XJd0TNq_rlp-idIrC8R-14" value="&lt;font style=&quot;font-size: 14px&quot;&gt;Hook takes in the params and shapes &lt;br&gt;them to match a class type so that the same&lt;br&gt;video player can be utilized.&amp;nbsp;&lt;/font&gt;" style="text;html=1;align=center;verticalAlign=middle;resizable=0;points=[];autosize=1;" vertex="1" parent="M89hSryivmBgH4ZzBxvR-1">
          <mxGeometry x="2090.0037974683546" y="-550" width="290" height="50" as="geometry" />
        </mxCell>
        <mxCell id="0XJd0TNq_rlp-idIrC8R-13" value="&lt;font color=&quot;#ff9933&quot; style=&quot;font-size: 14px&quot;&gt;&lt;b style=&quot;font-family: &amp;#34;helvetica&amp;#34; ; font-style: normal ; letter-spacing: normal ; text-align: center ; text-indent: 0px ; text-transform: none ; word-spacing: 0px ; background-color: rgb(248 , 249 , 250)&quot;&gt;&lt;font style=&quot;font-size: 14px&quot;&gt;useFetchClass ( {&lt;/font&gt;&lt;/b&gt;&lt;font face=&quot;helvetica&quot; style=&quot;font-size: 14px&quot;&gt;&lt;span&gt;&lt;b&gt;&lt;span style=&quot;text-align: center&quot;&gt;&amp;nbsp; &amp;nbsp; &amp;nbsp; &amp;nbsp; &amp;nbsp; &amp;nbsp; &amp;nbsp; &amp;nbsp; &amp;nbsp; &amp;nbsp; &amp;nbsp; &amp;nbsp; &amp;nbsp; &amp;nbsp; &amp;nbsp; &amp;nbsp; &amp;nbsp; &amp;nbsp; &amp;nbsp; &amp;nbsp; &amp;nbsp; &amp;nbsp; &amp;nbsp; video,&lt;/span&gt;&lt;span style=&quot;text-align: center ; text-indent: 0px ; background-color: rgb(248 , 249 , 250)&quot;&gt;&lt;div&gt;&amp;nbsp; &amp;nbsp; classId,&lt;/div&gt;&lt;div&gt;&amp;nbsp; &amp;nbsp; &amp;nbsp; &amp;nbsp; programId&lt;/div&gt;&lt;div&gt;} )&lt;/div&gt;&lt;/span&gt;&lt;/b&gt;&lt;/span&gt;&lt;/font&gt;&lt;/font&gt;" style="text;whiteSpace=wrap;html=1;" vertex="1" parent="M89hSryivmBgH4ZzBxvR-1">
          <mxGeometry x="2130" y="-650" width="210" height="140" as="geometry" />
        </mxCell>
        <mxCell id="0XJd0TNq_rlp-idIrC8R-3" value="" style="shape=flexArrow;endArrow=classic;html=1;fillColor=#cce5ff;strokeColor=#36393d;gradientColor=#A9C4EB;gradientDirection=west;" edge="1" parent="M89hSryivmBgH4ZzBxvR-1">
          <mxGeometry width="50" height="50" relative="1" as="geometry">
            <mxPoint x="1770.003157894737" y="-604.3299999999999" as="sourcePoint" />
            <mxPoint x="2103.9505263157894" y="-606.3299999999999" as="targetPoint" />
          </mxGeometry>
        </mxCell>
        <mxCell id="M89hSryivmBgH4ZzBxvR-69" value="" style="shape=flexArrow;endArrow=classic;html=1;fillColor=#cce5ff;strokeColor=#36393d;gradientColor=#A9C4EB;gradientDirection=west;" edge="1" parent="M89hSryivmBgH4ZzBxvR-1">
          <mxGeometry width="50" height="50" relative="1" as="geometry">
            <mxPoint x="1759.9994736842104" y="-750.97" as="sourcePoint" />
            <mxPoint x="2422.256511627907" y="-755.97" as="targetPoint" />
          </mxGeometry>
        </mxCell>
        <mxCell id="M89hSryivmBgH4ZzBxvR-72" value="&lt;blockquote style=&quot;margin: 0 0 0 40px ; border: none ; padding: 0px&quot;&gt;&lt;p style=&quot;line-height: 50%&quot;&gt;&lt;b&gt;&lt;font color=&quot;#0000ff&quot;&gt;nav&lt;/font&gt;&lt;/b&gt;=&#39;ClassModal&#39;,&amp;nbsp;&lt;/p&gt;&lt;div&gt;&lt;b&gt;&lt;font color=&quot;#007fff&quot;&gt;params&lt;/font&gt;&lt;/b&gt;&lt;span&gt;: {&amp;nbsp;&lt;/span&gt;&lt;/div&gt;&lt;div&gt;ClassModalProps&lt;/div&gt;,&lt;br&gt;}&lt;br&gt;&lt;font color=&quot;#ff3333&quot;&gt;&lt;b&gt;component&lt;/b&gt;&lt;/font&gt;: ClassModal&lt;/blockquote&gt;&lt;p&gt;&lt;/p&gt;" style="text;html=1;strokeColor=#36393d;fillColor=#cce5ff;align=left;verticalAlign=middle;whiteSpace=wrap;rounded=1;gradientColor=#7EA6E0;perimeterSpacing=1;labelPadding=7;arcSize=0;" vertex="1" parent="M89hSryivmBgH4ZzBxvR-1">
          <mxGeometry x="2450" y="-805.31" width="185.23" height="265.31" as="geometry" />
        </mxCell>
        <mxCell id="0XJd0TNq_rlp-idIrC8R-22" value="" style="shape=flexArrow;endArrow=classic;html=1;fillColor=#cce5ff;strokeColor=#36393d;gradientColor=#A9C4EB;gradientDirection=west;" edge="1" parent="M89hSryivmBgH4ZzBxvR-1">
          <mxGeometry width="50" height="50" relative="1" as="geometry">
            <mxPoint x="2330" y="-610.6199999999999" as="sourcePoint" />
            <mxPoint x="2420" y="-610.6199999999999" as="targetPoint" />
          </mxGeometry>
        </mxCell>
        <mxCell id="M89hSryivmBgH4ZzBxvR-20" value="&lt;font style=&quot;font-size: 14px&quot;&gt;&lt;b&gt;About Description&lt;/b&gt;&lt;/font&gt;" style="text;html=1;strokeColor=none;fillColor=none;align=center;verticalAlign=middle;whiteSpace=wrap;rounded=0;" vertex="1" parent="M89hSryivmBgH4ZzBxvR-1">
          <mxGeometry x="1150" y="-423.75" width="220" height="20" as="geometry" />
        </mxCell>
        <mxCell id="tYiOZid73cXhuJHnHTq--1" value="&lt;b&gt;&lt;font color=&quot;#ff0080&quot; style=&quot;font-size: 28px&quot;&gt;CMS ISSUE WORK AROUND&lt;/font&gt;&lt;/b&gt;" style="text;html=1;align=center;verticalAlign=middle;resizable=0;points=[];autosize=1;" vertex="1" parent="M89hSryivmBgH4ZzBxvR-1">
          <mxGeometry x="1510" y="-935" width="400" height="30" as="geometry" />
        </mxCell>
      </root>
    </mxGraphModel>
  </diagram>
</mxfile>
